<!DOCTYPE svg PUBLIC "-//W3C//DTD SVG 20010904//EN" "http://www.w3.org/TR/2001/REC-SVG-20010904/DTD/svg10.dtd">
<svg version="1.0" xmlns="http://www.w3.org/2000/svg" width="460px" height="460px" viewBox="0 0 4600 4600" preserveAspectRatio="xMidYMid meet">
<g id="layer101" fill="#f80602" stroke="none">
<path d="M989 2985 c10 -11 22 -31 26 -45 4 -14 13 -32 20 -40 13 -15 32 -47 99 -170 20 -36 40 -72 46 -80 5 -8 39 -67 76 -130 37 -63 75 -127 84 -141 10 -14 32 -52 49 -85 17 -32 45 -81 61 -109 17 -27 39 -69 49 -91 11 -23 24 -45 30 -49 6 -3 18 -19 26 -34 l14 -28 -62 13 c-34 7 -89 22 -122 34 -33 12 -78 23 -100 26 -22 3 -53 9 -70 14 -50 16 -345 91 -427 109 -81 19 -88 18 -88 -8 0 -12 26 -22 103 -40 56 -13 138 -34 182 -46 44 -13 94 -26 110 -29 17 -4 80 -20 140 -36 178 -47 308 -80 341 -86 25 -5 36 -15 53 -52 13 -26 45 -84 72 -129 27 -45 49 -84 49 -87 0 -2 23 -42 51 -88 29 -46 65 -108 82 -138 17 -30 33 -57 37 -60 4 -3 11 -16 15 -30 4 -14 13 -32 20 -40 7 -8 24 -35 38 -60 13 -25 41 -72 60 -105 20 -33 45 -77 57 -97 11 -21 23 -38 25 -38 3 0 19 26 35 58 17 31 49 86 70 122 21 36 50 87 64 114 15 26 35 60 46 73 11 14 20 29 20 34 0 5 25 49 55 100 30 50 55 95 55 99 0 4 13 25 28 46 16 21 31 47 34 56 4 9 18 35 33 57 20 33 31 41 53 40 l27 -2 -28 -4 c-25 -4 -55 -38 -44 -50 3 -3 45 0 94 6 48 6 98 9 111 7 12 -3 20 -1 17 4 -7 11 69 23 96 15 14 -5 19 -3 15 4 -8 12 12 17 99 25 70 7 168 22 245 36 113 22 167 31 223 37 59 6 64 11 47 44 -7 13 -7 19 0 19 5 0 10 -6 10 -12 0 -8 4 -7 10 3 10 18 7 119 -4 137 -4 7 -2 12 4 12 6 0 8 14 4 38 -3 20 -7 60 -8 87 -2 28 -4 58 -5 68 -1 24 -42 21 -266 -16 -286 -47 -455 -73 -455 -70 0 2 7 15 17 29 9 14 23 38 32 54 56 99 84 150 105 185 12 22 34 60 47 85 14 25 36 63 50 85 14 22 30 51 37 65 7 14 30 54 52 90 22 36 46 76 52 90 7 14 25 44 40 67 15 23 28 44 28 47 0 3 -519 7 -1154 8 -1154 3 -1155 3 -1137 -17z m2235 -32 c-4 -16 -12 -35 -19 -43 -12 -15 -69 -111 -110 -185 -13 -22 -40 -69 -60 -105 -21 -36 -46 -78 -55 -95 -9 -16 -27 -48 -41 -70 -14 -22 -30 -51 -37 -65 -7 -14 -31 -54 -52 -90 -22 -36 -45 -77 -52 -91 -10 -22 -20 -28 -62 -33 -28 -4 -118 -20 -201 -35 -240 -46 -424 -79 -505 -91 -41 -7 -100 -18 -130 -25 -30 -8 -104 -21 -164 -30 -61 -8 -112 -18 -115 -20 -8 -9 -42 28 -61 69 -11 23 -33 64 -49 91 -17 28 -42 73 -57 100 -14 28 -32 57 -39 65 -7 8 -25 38 -41 65 -43 80 -59 107 -85 150 -13 22 -31 52 -39 67 -16 28 -75 132 -100 176 -8 15 -26 45 -40 67 -14 22 -32 52 -40 67 -8 14 -23 40 -33 57 l-18 31 1106 0 1105 0 -6 -27z m243 -880 c-4 -3 -10 -3 -14 0 -3 4 0 7 7 7 7 0 10 -3 7 -7z m-270 -39 c-3 -3 -12 -4 -19 -1 -8 3 -5 6 6 6 11 1 17 -2 13 -5z m-60 -11 c-4 -3 -10 -3 -14 0 -3 4 0 7 7 7 7 0 10 -3 7 -7z m-110 -20 c-4 -3 -10 -3 -14 0 -3 4 0 7 7 7 7 0 10 -3 7 -7z m460 -70 c-4 -3 -10 -3 -14 0 -3 4 0 7 7 7 7 0 10 -3 7 -7z m-89 -10 c-10 -2 -26 -2 -35 0 -10 3 -2 5 17 5 19 0 27 -2 18 -5z m-1668 -27 c36 -8 85 -18 110 -21 25 -4 88 -17 140 -30 52 -13 127 -29 165 -35 39 -7 113 -22 165 -35 52 -13 118 -27 145 -31 28 -3 53 -8 57 -11 7 -4 -19 -56 -63 -128 -14 -22 -30 -51 -37 -65 -7 -14 -30 -54 -52 -90 -22 -36 -45 -76 -52 -90 -7 -14 -25 -44 -40 -67 -15 -23 -32 -52 -38 -65 -19 -44 -85 -151 -96 -155 -5 -2 -18 11 -28 29 -30 56 -50 91 -76 133 -13 22 -27 47 -31 55 -4 8 -32 57 -63 109 -31 51 -56 97 -56 101 0 3 -16 29 -35 56 -19 27 -35 53 -35 58 0 4 -13 28 -30 53 -16 24 -30 46 -30 49 0 6 -85 150 -108 183 -15 23 -15 23 3 18 11 -3 49 -13 85 -21z m1587 18 c-3 -3 -12 -4 -19 -1 -8 3 -5 6 6 6 11 1 17 -2 13 -5z m-44 -11 c-7 -2 -21 -2 -30 0 -10 3 -4 5 12 5 17 0 24 -2 18 -5z m-120 -20 c-7 -2 -19 -2 -25 0 -7 3 -2 5 12 5 14 0 19 -2 13 -5z m-76 -9 c-3 -3 -12 -4 -19 -1 -8 3 -5 6 6 6 11 1 17 -2 13 -5z m-80 -11 c-4 -3 -10 -3 -14 0 -3 4 0 7 7 7 7 0 10 -3 7 -7z m40 0 c-4 -3 -10 -3 -14 0 -3 4 0 7 7 7 7 0 10 -3 7 -7z m-110 -10 c-4 -3 -10 -3 -14 0 -3 4 0 7 7 7 7 0 10 -3 7 -7z m-50 -9 c-3 -3 -12 -4 -19 -1 -8 3 -5 6 6 6 11 1 17 -2 13 -5z m-114 -21 c-7 -2 -19 -2 -25 0 -7 3 -2 5 12 5 14 0 19 -2 13 -5z"/>
<path d="M3552 1900 c0 -14 2 -19 5 -12 2 6 2 18 0 25 -3 6 -5 1 -5 -13z"/>
</g>
<g id="layer102" fill="#616161" stroke="none">
<path d="M930 3433 c1 -13 39 -124 57 -165 14 -32 22 -38 42 -36 20 2 28 14 46 64 12 33 29 76 38 94 22 44 21 50 -7 50 -16 0 -27 -7 -31 -20 -5 -16 -15 -20 -50 -20 -35 0 -45 4 -50 20 -6 18 -45 29 -45 13z m120 -90 c-1 -13 -29 -59 -30 -48 0 6 -3 20 -6 33 -5 18 -2 22 15 22 11 0 21 -3 21 -7z"/>
<path d="M1183 3430 c-19 -8 -43 -38 -43 -54 0 -13 48 -5 54 9 3 9 18 15 36 15 23 0 30 -4 30 -20 0 -15 -10 -22 -44 -31 -42 -10 -66 -37 -66 -73 0 -44 94 -62 130 -26 27 27 25 40 -5 40 -14 0 -25 -5 -25 -11 0 -11 -49 -4 -51 8 0 4 17 14 39 22 53 21 72 39 72 66 0 48 -70 78 -127 55z"/>
<path d="M1364 3419 c-15 -16 -20 -40 -23 -105 -3 -80 -2 -84 18 -84 19 0 21 6 21 73 0 85 7 100 46 95 l29 -3 3 -82 c3 -81 3 -83 27 -83 25 0 25 1 25 83 0 45 -4 87 -8 93 -25 38 -108 46 -138 13z"/>
<path d="M1680 3355 l0 -85 -30 0 c-23 0 -30 -4 -30 -20 0 -18 7 -20 80 -20 73 0 80 2 80 20 0 16 -7 20 -30 20 l-30 0 0 85 c0 78 -2 85 -20 85 -18 0 -20 -7 -20 -85z"/>
<path d="M1790 3364 c0 -69 2 -76 19 -71 10 2 25 1 33 -4 7 -4 20 -4 27 1 18 10 6 41 -12 34 -17 -6 -23 7 -32 70 -5 29 -12 46 -21 46 -11 0 -14 -18 -14 -76z"/>
<path d="M1905 3424 c-28 -28 -15 -57 33 -74 23 -8 42 -18 42 -22 0 -12 -34 -10 -47 3 -7 7 -17 8 -26 3 -13 -8 -14 -12 -1 -28 17 -23 79 -26 99 -4 7 7 15 41 17 76 4 55 2 62 -14 62 -10 0 -18 -5 -18 -12 0 -9 -3 -9 -12 0 -17 17 -54 15 -73 -4z m59 -20 c20 -8 21 -34 2 -34 -17 0 -38 24 -29 33 8 8 8 8 27 1z"/>
<path d="M2060 3366 c0 -65 2 -74 20 -79 13 -3 20 0 20 10 0 12 3 12 21 -1 22 -15 48 -11 61 8 4 6 8 39 8 74 0 55 -2 63 -17 60 -14 -2 -19 -15 -21 -56 -2 -37 -8 -55 -19 -59 -22 -8 -33 15 -33 70 0 40 -3 47 -20 47 -18 0 -20 -7 -20 -74z"/>
<path d="M2245 3426 c-16 -12 -18 -17 -7 -27 9 -10 15 -10 24 -1 15 15 51 16 46 0 -2 -6 -20 -17 -39 -23 -30 -10 -34 -16 -34 -45 0 -28 4 -35 25 -40 39 -9 75 0 89 22 12 19 11 20 -40 13 -57 -8 -63 8 -6 20 40 9 57 22 57 45 0 39 -79 64 -115 36z"/>
<path d="M2540 3435 c0 -3 16 -46 35 -95 19 -49 35 -94 35 -100 0 -5 14 -10 30 -10 19 0 30 5 30 14 0 8 13 43 29 78 16 35 33 75 36 91 6 23 4 27 -13 27 -12 0 -23 -9 -27 -20 -5 -16 -15 -20 -50 -20 -35 0 -45 4 -50 20 -4 13 -15 20 -31 20 -13 0 -24 -2 -24 -5z m120 -102 c0 -10 -4 -25 -10 -33 -7 -11 -11 -9 -19 13 -14 37 -14 37 9 37 12 0 20 -7 20 -17z"/>
<path d="M2770 3335 c0 -98 1 -105 20 -105 19 0 20 7 20 105 0 98 -1 105 -20 105 -19 0 -20 -7 -20 -105z"/>
<path d="M2927 3433 c-4 -3 -7 -51 -7 -105 0 -98 0 -98 25 -98 25 0 25 1 25 85 l0 85 50 0 c43 0 50 3 50 20 0 18 -7 20 -68 20 -38 0 -72 -3 -75 -7z"/>
<path d="M3100 3420 c-18 -33 -3 -58 41 -70 21 -6 39 -15 39 -20 0 -14 -38 -12 -42 2 -6 18 -40 1 -36 -19 4 -21 49 -34 86 -24 26 7 27 11 32 79 4 64 3 72 -12 72 -10 0 -18 -5 -18 -12 0 -9 -3 -9 -12 0 -20 20 -66 15 -78 -8z m64 -16 c15 -6 23 -34 10 -34 -15 0 -44 22 -39 31 7 11 9 11 29 3z"/>
<path d="M3260 3335 c0 -98 1 -105 20 -105 16 0 20 7 20 34 0 34 0 34 40 29 38 -5 41 -4 54 29 15 34 12 71 -6 95 -15 18 -67 26 -83 13 -11 -9 -15 -9 -15 -1 0 6 -7 11 -15 11 -12 0 -15 -18 -15 -105z m90 54 c14 -25 5 -69 -13 -69 -47 0 -51 84 -5 89 4 1 12 -8 18 -20z"/>
<path d="M2430 3380 c0 -25 -4 -30 -25 -30 -16 0 -25 -6 -25 -15 0 -9 9 -15 25 -15 20 0 25 -5 25 -25 0 -20 5 -25 25 -25 20 0 25 5 25 25 0 20 5 25 25 25 16 0 25 6 25 15 0 9 -9 15 -25 15 -21 0 -25 5 -25 30 0 25 -4 30 -25 30 -21 0 -25 -5 -25 -30z"/>
<path d="M989 2985 c10 -11 22 -31 26 -45 4 -14 13 -32 20 -40 13 -15 32 -47 99 -170 20 -36 40 -72 46 -80 5 -8 39 -67 76 -130 37 -63 75 -127 84 -141 10 -14 32 -52 49 -85 17 -32 45 -81 61 -109 17 -27 39 -69 49 -91 11 -23 24 -45 30 -49 6 -3 18 -19 26 -34 l14 -28 -62 13 c-34 7 -89 22 -122 34 -33 12 -78 23 -100 26 -22 3 -53 9 -70 14 -50 16 -345 91 -427 109 -81 19 -88 18 -88 -8 0 -12 26 -22 103 -40 56 -13 138 -34 182 -46 44 -13 94 -26 110 -29 17 -4 80 -20 140 -36 178 -47 308 -80 341 -86 25 -5 36 -15 53 -52 13 -26 45 -84 72 -129 27 -45 49 -84 49 -87 0 -2 23 -42 51 -88 29 -46 65 -108 82 -138 17 -30 33 -57 37 -60 4 -3 11 -16 15 -30 4 -14 13 -32 20 -40 7 -8 24 -35 38 -60 13 -25 41 -72 60 -105 20 -33 45 -77 57 -97 11 -21 23 -38 25 -38 3 0 19 26 35 58 17 31 49 86 70 122 21 36 50 87 64 114 15 26 35 60 46 73 11 14 20 29 20 34 0 5 25 49 55 100 30 50 55 94 55 98 0 3 12 24 27 46 15 22 39 65 54 96 l27 56 78 12 c44 6 99 15 124 20 62 12 227 37 330 52 47 6 103 15 125 19 78 16 181 30 245 34 l65 4 1 48 c1 27 -2 59 -7 71 -5 14 -5 23 1 23 6 0 8 16 4 38 -3 20 -7 60 -8 87 -2 28 -4 58 -5 68 -1 24 -42 21 -266 -16 -286 -47 -455 -73 -455 -70 0 2 7 15 17 29 9 14 23 38 32 54 56 99 84 150 105 185 12 22 34 60 47 85 14 25 36 63 50 85 14 22 30 51 37 65 7 14 30 54 52 90 22 36 46 76 52 90 7 14 25 44 40 67 15 23 28 44 28 47 0 3 -519 7 -1154 8 -1154 3 -1155 3 -1137 -17z m2235 -32 c-4 -16 -12 -35 -19 -43 -12 -15 -69 -111 -110 -185 -13 -22 -40 -69 -60 -105 -21 -36 -46 -78 -55 -95 -9 -16 -27 -48 -41 -70 -14 -22 -30 -51 -37 -65 -7 -14 -31 -54 -52 -90 -22 -36 -45 -77 -52 -91 -10 -22 -20 -28 -62 -33 -28 -4 -118 -20 -201 -35 -240 -46 -424 -79 -505 -91 -41 -7 -100 -18 -130 -25 -30 -8 -104 -21 -164 -30 -61 -8 -112 -18 -115 -20 -8 -9 -42 28 -61 69 -11 23 -33 64 -49 91 -17 28 -42 73 -57 100 -14 28 -32 57 -39 65 -7 8 -25 38 -41 65 -43 80 -59 107 -85 150 -13 22 -31 52 -39 67 -16 28 -75 132 -100 176 -8 15 -26 45 -40 67 -14 22 -32 52 -40 67 -8 14 -23 40 -33 57 l-18 31 1106 0 1105 0 -6 -27z m243 -880 c-4 -3 -10 -3 -14 0 -3 4 0 7 7 7 7 0 10 -3 7 -7z m-270 -39 c-3 -3 -12 -4 -19 -1 -8 3 -5 6 6 6 11 1 17 -2 13 -5z m-60 -11 c-4 -3 -10 -3 -14 0 -3 4 0 7 7 7 7 0 10 -3 7 -7z m-110 -20 c-4 -3 -10 -3 -14 0 -3 4 0 7 7 7 7 0 10 -3 7 -7z m-1297 -107 c36 -8 85 -18 110 -21 25 -4 88 -17 140 -30 52 -13 127 -29 165 -35 39 -7 113 -22 165 -35 52 -13 118 -27 145 -31 28 -3 53 -8 57 -11 7 -4 -19 -56 -63 -128 -14 -22 -30 -51 -37 -65 -7 -14 -30 -54 -52 -90 -22 -36 -45 -76 -52 -90 -7 -14 -25 -44 -40 -67 -15 -23 -32 -52 -38 -65 -19 -44 -85 -151 -96 -155 -5 -2 -18 11 -28 29 -30 56 -50 91 -76 133 -13 22 -27 47 -31 55 -4 8 -32 57 -63 109 -31 51 -56 97 -56 101 0 3 -16 29 -35 56 -19 27 -35 53 -35 58 0 4 -13 28 -30 53 -16 24 -30 46 -30 49 0 6 -85 150 -108 183 -15 23 -15 23 3 18 11 -3 49 -13 85 -21z"/>
</g>
<g id="layer103" fill="#3fcb26" stroke="none">
<path d="M989 2985 c10 -11 22 -31 26 -44 4 -14 20 -42 36 -64 16 -22 29 -44 29 -49 0 -5 11 -24 25 -42 14 -18 25 -36 25 -40 0 -5 98 -177 141 -246 5 -8 21 -37 35 -65 15 -27 34 -60 44 -75 39 -57 152 -256 156 -274 2 -10 12 -29 22 -40 11 -12 24 -31 30 -42 11 -21 11 -21 -51 -8 -34 7 -87 22 -117 32 -30 11 -58 20 -62 21 -5 0 -9 1 -10 2 -2 0 -20 2 -40 4 -20 2 -61 11 -90 20 -156 48 -477 125 -482 116 -12 -26 6 -36 94 -58 52 -13 129 -33 170 -45 41 -12 109 -29 150 -38 41 -10 147 -37 235 -60 88 -23 181 -47 206 -52 40 -9 49 -16 68 -52 11 -22 35 -63 51 -91 28 -48 62 -108 116 -205 14 -25 33 -56 43 -70 10 -15 31 -48 45 -75 29 -55 55 -99 109 -190 20 -33 48 -82 62 -110 15 -27 32 -57 40 -65 7 -8 16 -25 19 -37 4 -13 11 -23 16 -23 9 0 87 124 102 163 4 10 20 37 36 60 15 23 39 63 52 89 14 27 28 48 31 48 4 0 10 12 14 28 3 15 13 34 20 42 7 8 25 38 40 65 14 28 44 79 66 115 21 36 52 90 68 121 l30 56 78 12 c43 6 98 15 123 20 62 12 227 37 330 52 47 6 103 15 125 19 78 16 181 30 245 34 l65 4 1 48 c1 27 -2 59 -7 71 -5 15 -5 23 2 23 6 0 8 13 4 33 -5 28 -11 100 -14 160 -1 16 -8 18 -53 15 -29 -2 -125 -16 -213 -31 -320 -53 -455 -73 -454 -68 0 3 13 29 29 56 17 28 43 75 60 105 17 30 49 84 71 120 22 36 46 79 54 95 9 17 33 59 55 95 21 36 50 87 65 114 14 26 34 60 45 73 11 14 20 30 20 35 0 6 14 30 30 55 17 24 30 46 30 48 0 3 -519 6 -1154 7 -1154 3 -1155 3 -1137 -17z m2238 -32 c-7 -16 -24 -46 -38 -68 -14 -22 -32 -52 -40 -66 -12 -23 -55 -100 -99 -177 -8 -15 -26 -45 -39 -67 -24 -39 -30 -50 -82 -145 -14 -25 -32 -56 -42 -70 -17 -27 -57 -96 -83 -146 -14 -28 -24 -33 -68 -38 -28 -4 -118 -20 -201 -35 -240 -46 -424 -79 -505 -91 -41 -7 -100 -18 -130 -25 -30 -8 -104 -21 -164 -30 -61 -8 -112 -18 -115 -20 -8 -9 -41 28 -62 69 -10 23 -35 66 -54 96 -32 52 -54 90 -128 222 -18 31 -38 63 -44 70 -7 6 -13 16 -13 21 0 5 -15 34 -34 65 -84 140 -129 217 -158 270 -17 31 -42 75 -54 97 -13 22 -30 52 -39 68 l-16 27 1110 0 1110 0 -12 -27z m300 -869 c-3 -3 -12 -4 -19 -1 -8 3 -5 6 6 6 11 1 17 -2 13 -5z m-54 -11 c-7 -2 -19 -2 -25 0 -7 3 -2 5 12 5 14 0 19 -2 13 -5z m-50 -10 c-7 -2 -19 -2 -25 0 -7 3 -2 5 12 5 14 0 19 -2 13 -5z m-170 -20 c-7 -2 -19 -2 -25 0 -7 3 -2 5 12 5 14 0 19 -2 13 -5z m-50 -10 c-7 -2 -21 -2 -30 0 -10 3 -4 5 12 5 17 0 24 -2 18 -5z m-60 -10 c-7 -2 -19 -2 -25 0 -7 3 -2 5 12 5 14 0 19 -2 13 -5z m-60 -10 c-7 -2 -19 -2 -25 0 -7 3 -2 5 12 5 14 0 19 -2 13 -5z m-50 -10 c-7 -2 -19 -2 -25 0 -7 3 -2 5 12 5 14 0 19 -2 13 -5z m-170 -20 c-7 -2 -19 -2 -25 0 -7 3 -2 5 12 5 14 0 19 -2 13 -5z m-50 -10 c-7 -2 -19 -2 -25 0 -7 3 -2 5 12 5 14 0 19 -2 13 -5z m-60 -10 c-7 -2 -19 -2 -25 0 -7 3 -2 5 12 5 14 0 19 -2 13 -5z m-56 -10 c-4 -3 -10 -3 -14 0 -3 4 0 7 7 7 7 0 10 -3 7 -7z m-967 -57 c36 -8 85 -18 110 -21 25 -4 88 -17 140 -30 52 -13 127 -29 165 -35 39 -7 113 -23 166 -36 52 -13 121 -26 152 -30 31 -4 57 -10 57 -14 0 -8 -41 -83 -100 -180 -18 -30 -46 -80 -63 -110 -16 -30 -36 -62 -43 -71 -8 -8 -14 -20 -14 -26 0 -6 -16 -35 -35 -64 -19 -30 -35 -58 -35 -64 0 -6 -5 -16 -12 -23 -7 -7 -26 -37 -43 -68 -35 -63 -43 -68 -59 -39 -6 11 -20 36 -32 55 -62 102 -154 262 -154 268 0 3 -11 22 -23 41 -13 20 -43 70 -67 111 -24 41 -69 118 -100 170 -31 52 -61 106 -68 120 -6 14 -19 36 -29 49 -17 23 -17 23 2 18 11 -3 49 -13 85 -21z"/>
</g>
<g id="layer104" fill="#40b840" stroke="none">
<path d="M989 2985 c10 -11 22 -31 26 -44 4 -14 20 -42 36 -64 16 -22 29 -44 29 -49 0 -5 11 -24 25 -42 14 -18 25 -36 25 -40 0 -5 98 -177 141 -246 5 -8 21 -37 35 -65 15 -27 34 -60 44 -75 39 -57 152 -256 156 -274 2 -10 12 -29 22 -40 11 -12 24 -31 30 -42 11 -21 11 -21 -51 -8 -34 7 -87 22 -117 32 -30 11 -58 20 -62 21 -5 0 -9 1 -10 2 -2 0 -20 2 -40 4 -20 2 -61 11 -90 20 -156 48 -477 125 -482 116 -12 -26 6 -36 94 -58 52 -13 129 -33 170 -45 41 -12 109 -29 150 -38 41 -10 147 -37 235 -60 88 -23 181 -47 206 -52 40 -9 49 -16 68 -52 11 -22 35 -63 51 -91 28 -48 62 -108 116 -205 14 -25 33 -56 43 -70 10 -15 31 -48 45 -75 29 -55 55 -99 109 -190 20 -33 48 -82 62 -110 15 -27 32 -57 40 -65 7 -8 16 -25 19 -37 4 -13 11 -23 16 -23 9 0 87 124 102 163 4 10 20 37 36 60 15 23 39 63 52 89 14 27 28 48 31 48 4 0 10 12 14 28 3 15 13 34 20 42 7 8 25 38 40 65 14 28 44 79 66 115 21 36 52 90 68 121 l30 56 78 12 c43 6 98 15 123 20 62 12 227 37 330 52 47 6 103 15 125 19 78 16 181 30 245 34 l65 4 -1 61 c0 46 -5 66 -18 79 -11 10 -15 11 -11 3 6 -11 2 -13 -19 -7 -16 4 -26 2 -26 -5 0 -7 -15 -9 -42 -5 -33 5 -38 4 -23 -4 15 -8 11 -9 -20 -5 -23 3 -35 2 -28 -3 7 -4 -16 -6 -52 -4 -69 5 -119 -3 -111 -17 3 -5 -5 -11 -19 -13 -14 -3 -25 -1 -25 3 0 12 -51 11 -70 -1 -8 -5 -10 -10 -5 -11 6 0 1 -4 -10 -8 -11 -5 -23 -4 -26 2 -4 6 -22 7 -45 3 -21 -4 -33 -11 -27 -14 7 -4 -23 -6 -65 -5 -47 2 -69 0 -58 -5 19 -8 19 -9 -2 -14 -12 -4 -22 -2 -22 3 0 5 -8 9 -17 9 -16 0 -16 -2 -3 -10 11 -8 -1 -9 -40 -5 -34 3 -46 2 -30 -3 23 -7 23 -9 5 -13 -26 -7 -64 28 -40 37 8 4 15 14 15 23 0 13 10 18 46 20 26 1 70 7 98 12 28 6 76 12 106 15 30 3 70 10 89 16 35 11 81 19 114 19 9 0 17 6 17 12 0 9 3 8 8 -1 7 -10 40 -7 161 14 83 14 158 23 166 20 8 -3 15 -17 15 -31 0 -14 5 -25 10 -25 7 0 9 13 5 33 -5 28 -11 100 -14 160 -1 16 -8 18 -53 15 -29 -2 -125 -16 -213 -31 -320 -53 -455 -73 -454 -68 0 3 13 29 29 56 17 28 43 75 60 105 17 30 49 84 71 120 22 36 46 79 54 95 9 17 33 59 55 95 21 36 50 87 65 114 14 26 34 60 45 73 11 14 20 30 20 35 0 6 14 30 30 55 17 24 30 46 30 48 0 3 -519 6 -1154 7 -1154 3 -1155 3 -1137 -17z m2238 -32 c-7 -16 -24 -46 -38 -68 -14 -22 -32 -52 -40 -66 -12 -23 -55 -100 -99 -177 -8 -15 -26 -45 -39 -67 -24 -39 -30 -50 -82 -145 -14 -25 -32 -56 -42 -70 -17 -27 -57 -96 -83 -146 -14 -28 -24 -33 -68 -38 -28 -4 -118 -20 -201 -35 -240 -46 -424 -79 -505 -91 -41 -7 -100 -18 -130 -25 -30 -8 -104 -21 -164 -30 -61 -8 -112 -18 -115 -20 -8 -9 -41 28 -62 69 -10 23 -35 66 -54 96 -32 52 -54 90 -128 222 -18 31 -38 63 -44 70 -7 6 -13 16 -13 21 0 5 -15 34 -34 65 -84 140 -129 217 -158 270 -17 31 -42 75 -54 97 -13 22 -30 52 -39 68 l-16 27 1110 0 1110 0 -12 -27z m33 -907 c0 -2 -9 -6 -20 -9 -11 -3 -20 -1 -20 4 0 5 9 9 20 9 11 0 20 -2 20 -4z m-110 -20 c0 -2 -11 -6 -25 -8 -13 -3 -22 -1 -19 3 5 9 44 13 44 5z m-117 -23 c-7 -2 -19 -2 -25 0 -7 3 -2 5 12 5 14 0 19 -2 13 -5z m-136 -20 c-4 -3 -10 -3 -14 0 -3 4 0 7 7 7 7 0 10 -3 7 -7z m-200 -30 c-4 -3 -10 -3 -14 0 -3 4 0 7 7 7 7 0 10 -3 7 -7z m-967 -57 c36 -8 85 -18 110 -21 25 -4 88 -17 140 -30 52 -13 127 -29 165 -35 39 -7 113 -23 166 -36 52 -13 121 -26 152 -30 31 -4 57 -10 57 -14 0 -8 -41 -83 -100 -180 -18 -30 -46 -80 -63 -110 -16 -30 -36 -62 -43 -71 -8 -8 -14 -20 -14 -26 0 -6 -16 -35 -35 -64 -19 -30 -35 -58 -35 -64 0 -6 -5 -16 -12 -23 -7 -7 -26 -37 -43 -68 -35 -63 -43 -68 -59 -39 -6 11 -20 36 -32 55 -62 102 -154 262 -154 268 0 3 -11 22 -23 41 -13 20 -43 70 -67 111 -24 41 -69 118 -100 170 -31 52 -61 106 -68 120 -6 14 -19 36 -29 49 -17 23 -17 23 2 18 11 -3 49 -13 85 -21z"/>
</g>
<g id="layer105" fill="#5548b1" stroke="none">
<path d="M989 2985 c10 -11 22 -31 26 -44 4 -14 20 -42 36 -64 16 -22 29 -44 29 -49 0 -5 11 -24 25 -42 14 -18 25 -36 25 -40 0 -5 98 -177 141 -246 5 -8 21 -37 35 -65 15 -27 34 -60 44 -75 39 -57 152 -256 156 -274 2 -10 12 -29 22 -40 11 -12 24 -31 30 -42 11 -21 11 -21 -51 -8 -34 7 -87 22 -117 32 -30 11 -58 20 -62 21 -5 0 -9 1 -10 2 -2 0 -20 2 -40 4 -20 2 -61 11 -90 20 -156 48 -477 125 -482 116 -12 -26 6 -36 94 -58 52 -13 129 -33 170 -45 41 -12 109 -29 150 -38 41 -10 147 -37 235 -60 88 -23 181 -47 206 -52 40 -9 49 -16 68 -52 11 -22 35 -63 51 -91 28 -48 62 -108 116 -205 14 -25 33 -56 43 -70 10 -15 31 -48 45 -75 29 -55 55 -99 109 -190 20 -33 48 -82 62 -110 15 -27 32 -57 40 -65 7 -8 16 -25 19 -37 4 -13 11 -23 16 -23 9 0 87 124 102 163 4 10 20 37 36 60 15 23 39 63 52 89 14 27 28 48 31 48 4 0 10 12 14 28 3 15 13 34 20 42 7 8 25 38 40 65 14 28 44 79 66 115 21 36 52 90 68 121 l30 56 78 12 c43 6 98 15 123 20 62 12 227 37 330 52 47 6 103 15 125 19 78 16 181 30 245 34 l65 4 1 48 c1 27 -2 58 -7 71 -7 19 -12 21 -31 14 -13 -5 -66 -14 -118 -21 -52 -7 -156 -23 -230 -36 -74 -13 -175 -28 -224 -34 -49 -6 -123 -18 -165 -25 -115 -23 -119 -22 -87 19 14 19 26 39 26 44 0 15 28 23 125 33 50 5 113 13 140 18 134 25 186 33 255 41 41 5 104 14 140 21 36 6 89 12 117 13 l53 1 -4 55 c-2 30 -5 63 -5 73 -1 16 -8 18 -53 15 -29 -2 -125 -16 -213 -31 -320 -53 -455 -73 -454 -68 0 3 13 29 29 56 17 28 43 75 60 105 17 30 49 84 71 120 22 36 46 79 54 95 9 17 33 59 55 95 21 36 50 87 65 114 14 26 34 60 45 73 11 14 20 30 20 35 0 6 14 30 30 55 17 24 30 46 30 48 0 3 -519 6 -1154 7 -1154 3 -1155 3 -1137 -17z m2238 -32 c-7 -16 -24 -46 -38 -68 -14 -22 -32 -52 -40 -66 -12 -23 -55 -100 -99 -177 -8 -15 -26 -45 -39 -67 -24 -39 -30 -50 -82 -145 -14 -25 -32 -56 -42 -70 -17 -27 -57 -96 -83 -146 -14 -28 -24 -33 -68 -38 -28 -4 -118 -20 -201 -35 -240 -46 -424 -79 -505 -91 -41 -7 -100 -18 -130 -25 -30 -8 -104 -21 -164 -30 -61 -8 -112 -18 -115 -20 -8 -9 -41 28 -62 69 -10 23 -35 66 -54 96 -32 52 -54 90 -128 222 -18 31 -38 63 -44 70 -7 6 -13 16 -13 21 0 5 -15 34 -34 65 -84 140 -129 217 -158 270 -17 31 -42 75 -54 97 -13 22 -30 52 -39 68 l-16 27 1110 0 1110 0 -12 -27z m-1497 -1057 c36 -8 85 -18 110 -21 25 -4 88 -17 140 -30 52 -13 127 -29 165 -35 39 -7 113 -23 166 -36 52 -13 121 -26 152 -30 31 -4 57 -10 57 -14 0 -8 -41 -83 -100 -180 -18 -30 -46 -80 -63 -110 -16 -30 -36 -62 -43 -71 -8 -8 -14 -20 -14 -26 0 -6 -16 -35 -35 -64 -19 -30 -35 -58 -35 -64 0 -6 -5 -16 -12 -23 -7 -7 -26 -37 -43 -68 -35 -63 -43 -68 -59 -39 -6 11 -20 36 -32 55 -62 102 -154 262 -154 268 0 3 -11 22 -23 41 -13 20 -43 70 -67 111 -24 41 -69 118 -100 170 -31 52 -61 106 -68 120 -6 14 -19 36 -29 49 -17 23 -17 23 2 18 11 -3 49 -13 85 -21z"/>
</g>
<g id="layer106" fill="#2eaeb4" stroke="none">
<path d="M989 2985 c10 -11 22 -31 26 -44 4 -14 20 -42 36 -64 16 -22 29 -44 29 -49 0 -5 11 -24 25 -42 14 -18 25 -36 25 -40 0 -5 98 -177 141 -246 5 -8 21 -37 35 -65 15 -27 34 -60 44 -75 39 -57 152 -256 156 -274 2 -10 12 -29 22 -40 11 -12 24 -31 30 -42 11 -21 11 -21 -51 -8 -34 7 -87 22 -117 32 -30 11 -58 20 -62 21 -5 0 -9 1 -10 2 -2 0 -20 2 -40 4 -20 2 -61 11 -90 20 -156 48 -477 125 -482 116 -12 -26 6 -36 94 -58 52 -13 129 -33 170 -45 41 -12 109 -29 150 -38 41 -10 147 -37 235 -60 88 -23 181 -47 206 -52 40 -9 49 -16 68 -52 11 -22 35 -63 51 -91 28 -48 62 -108 116 -205 14 -25 33 -56 43 -70 10 -15 31 -48 45 -75 29 -55 55 -99 109 -190 20 -33 48 -82 62 -110 15 -27 32 -57 40 -65 7 -8 16 -25 19 -37 4 -13 11 -23 16 -23 9 0 87 124 102 163 4 10 20 37 36 60 15 23 39 63 52 89 14 27 28 48 31 48 4 0 10 12 14 28 3 15 13 34 20 42 7 8 25 38 40 65 14 28 44 79 66 115 21 36 52 90 68 121 l30 56 78 12 c43 6 98 15 123 20 62 12 227 37 330 52 47 6 103 15 125 19 78 16 181 30 245 34 l65 4 1 48 c1 27 -2 58 -7 71 -7 19 -12 21 -31 14 -13 -5 -66 -14 -118 -21 -52 -7 -156 -23 -230 -36 -74 -13 -175 -28 -224 -34 -49 -6 -123 -18 -165 -25 -115 -23 -119 -22 -87 19 14 19 26 39 26 44 0 15 28 23 125 33 50 5 113 13 140 18 134 25 186 33 255 41 41 5 104 14 140 21 36 6 89 12 117 13 l53 1 -4 55 c-2 30 -5 63 -5 73 -1 16 -8 18 -53 15 -29 -2 -125 -16 -213 -31 -320 -53 -455 -73 -454 -68 0 3 13 29 29 56 17 28 43 75 60 105 17 30 49 84 71 120 22 36 46 79 54 95 9 17 33 59 55 95 21 36 50 87 65 114 14 26 34 60 45 73 11 14 20 30 20 35 0 6 14 30 30 55 17 24 30 46 30 48 0 3 -519 6 -1154 7 -1154 3 -1155 3 -1137 -17z m2238 -32 c-7 -16 -24 -46 -38 -68 -14 -22 -32 -52 -40 -66 -12 -23 -55 -100 -99 -177 -8 -15 -26 -45 -39 -67 -24 -39 -30 -50 -82 -145 -14 -25 -32 -56 -42 -70 -17 -27 -57 -96 -83 -146 -14 -28 -24 -33 -68 -38 -28 -4 -118 -20 -201 -35 -240 -46 -424 -79 -505 -91 -41 -7 -100 -18 -130 -25 -30 -8 -104 -21 -164 -30 -61 -8 -112 -18 -115 -20 -8 -9 -41 28 -62 69 -10 23 -35 66 -54 96 -32 52 -54 90 -128 222 -18 31 -38 63 -44 70 -7 6 -13 16 -13 21 0 5 -15 34 -34 65 -84 140 -129 217 -158 270 -17 31 -42 75 -54 97 -13 22 -30 52 -39 68 l-16 27 1110 0 1110 0 -12 -27z m298 -723 c-3 -5 -21 -10 -38 -9 -31 1 -31 1 -7 9 36 11 52 11 45 0z m-160 -31 c-49 -10 -101 -18 -115 -17 -34 1 137 36 175 36 17 0 -10 -8 -60 -19z m-146 -23 c-2 -2 -38 -6 -79 -9 -46 -4 -65 -3 -50 3 24 8 137 14 129 6z m-184 -26 c-16 -4 -41 -8 -55 -8 l-25 0 25 8 c14 4 39 8 55 8 l30 0 -30 -8z m-145 -26 c-36 -7 -76 -13 -90 -13 -37 1 79 26 120 26 25 1 16 -3 -30 -13z m-1160 -228 c36 -8 85 -18 110 -21 25 -4 88 -17 140 -30 52 -13 127 -29 165 -35 39 -7 113 -23 166 -36 52 -13 121 -26 152 -30 31 -4 57 -10 57 -14 0 -8 -41 -83 -100 -180 -18 -30 -46 -80 -63 -110 -16 -30 -36 -62 -43 -71 -8 -8 -14 -20 -14 -26 0 -6 -16 -35 -35 -64 -19 -30 -35 -58 -35 -64 0 -6 -5 -16 -12 -23 -7 -7 -26 -37 -43 -68 -35 -63 -43 -68 -59 -39 -6 11 -20 36 -32 55 -62 102 -154 262 -154 268 0 3 -11 22 -23 41 -13 20 -43 70 -67 111 -24 41 -69 118 -100 170 -31 52 -61 106 -68 120 -6 14 -19 36 -29 49 -17 23 -17 23 2 18 11 -3 49 -13 85 -21z"/>
</g>
<g id="layer107" fill="#d219ba" stroke="none">
<path d="M989 2985 c10 -11 22 -31 26 -44 4 -14 20 -42 36 -64 16 -22 29 -44 29 -49 0 -5 11 -24 25 -42 14 -18 25 -36 25 -40 0 -5 98 -177 141 -246 5 -8 21 -37 35 -65 15 -27 34 -60 44 -75 39 -57 152 -256 156 -274 2 -10 12 -29 22 -40 11 -12 24 -31 30 -42 11 -21 11 -21 -51 -8 -34 7 -87 22 -117 32 -30 11 -58 20 -62 21 -5 0 -9 1 -10 2 -2 0 -20 2 -40 4 -20 2 -61 11 -90 20 -156 48 -477 125 -482 116 -12 -26 6 -36 94 -58 52 -13 129 -33 170 -45 41 -12 109 -29 150 -38 41 -10 147 -37 235 -60 88 -23 181 -47 206 -52 40 -9 49 -16 68 -52 11 -22 35 -63 51 -91 28 -48 62 -108 116 -205 14 -25 33 -56 43 -70 10 -15 31 -48 45 -75 29 -55 55 -99 109 -190 20 -33 48 -82 62 -110 15 -27 32 -57 40 -65 7 -8 16 -25 19 -37 4 -13 11 -23 16 -23 9 0 87 124 102 163 4 10 20 37 36 60 15 23 39 63 52 89 14 27 28 48 31 48 4 0 10 12 14 28 3 15 13 34 20 42 7 8 25 38 40 65 14 28 44 79 66 115 21 36 52 90 68 121 l30 56 78 12 c43 6 98 15 123 20 62 12 227 37 330 52 47 6 103 15 125 19 78 16 181 30 245 34 l65 4 1 48 c1 27 -2 58 -7 71 -7 19 -12 21 -31 14 -13 -5 -66 -14 -118 -21 -52 -7 -156 -23 -230 -36 -74 -13 -175 -28 -224 -34 -49 -6 -123 -18 -165 -25 -115 -23 -119 -22 -87 19 14 19 26 41 26 49 0 27 25 35 105 33 44 -1 91 3 105 8 14 5 36 11 50 13 14 2 40 8 57 14 18 6 43 10 55 9 13 -1 25 -1 28 0 10 4 85 12 110 12 14 -1 47 6 73 15 27 8 64 13 82 11 21 -2 36 1 39 8 2 6 23 12 45 12 71 1 79 7 76 55 -2 23 -4 50 -4 60 -1 16 -8 18 -53 15 -29 -2 -125 -16 -213 -31 -320 -53 -455 -73 -454 -68 0 3 13 29 29 56 17 28 43 75 60 105 17 30 49 84 71 120 22 36 46 79 54 95 9 17 33 59 55 95 21 36 50 87 65 114 14 26 34 60 45 73 11 14 20 30 20 35 0 6 14 30 30 55 17 24 30 46 30 48 0 3 -519 6 -1154 7 -1154 3 -1155 3 -1137 -17z m2238 -32 c-7 -16 -24 -46 -38 -68 -14 -22 -32 -52 -40 -66 -12 -23 -55 -100 -99 -177 -8 -15 -26 -45 -39 -67 -24 -39 -30 -50 -82 -145 -14 -25 -32 -56 -42 -70 -17 -27 -57 -96 -83 -146 -14 -28 -24 -33 -68 -38 -28 -4 -118 -20 -201 -35 -240 -46 -424 -79 -505 -91 -41 -7 -100 -18 -130 -25 -30 -8 -104 -21 -164 -30 -61 -8 -112 -18 -115 -20 -8 -9 -41 28 -62 69 -10 23 -35 66 -54 96 -32 52 -54 90 -128 222 -18 31 -38 63 -44 70 -7 6 -13 16 -13 21 0 5 -15 34 -34 65 -84 140 -129 217 -158 270 -17 31 -42 75 -54 97 -13 22 -30 52 -39 68 l-16 27 1110 0 1110 0 -12 -27z m298 -723 c-3 -5 -21 -10 -38 -9 -31 1 -31 1 -7 9 36 11 52 11 45 0z m-160 -31 c-49 -10 -101 -18 -115 -17 -34 1 137 36 175 36 17 0 -10 -8 -60 -19z m-146 -23 c-2 -2 -38 -6 -79 -9 -46 -4 -65 -3 -50 3 24 8 137 14 129 6z m-184 -26 c-16 -4 -41 -8 -55 -8 l-25 0 25 8 c14 4 39 8 55 8 l30 0 -30 -8z m-145 -26 c-36 -7 -76 -13 -90 -13 -37 1 79 26 120 26 25 1 16 -3 -30 -13z m-1160 -228 c36 -8 85 -18 110 -21 25 -4 88 -17 140 -30 52 -13 127 -29 165 -35 39 -7 113 -23 166 -36 52 -13 121 -26 152 -30 31 -4 57 -10 57 -14 0 -8 -41 -83 -100 -180 -18 -30 -46 -80 -63 -110 -16 -30 -36 -62 -43 -71 -8 -8 -14 -20 -14 -26 0 -6 -16 -35 -35 -64 -19 -30 -35 -58 -35 -64 0 -6 -5 -16 -12 -23 -7 -7 -26 -37 -43 -68 -35 -63 -43 -68 -59 -39 -6 11 -20 36 -32 55 -62 102 -154 262 -154 268 0 3 -11 22 -23 41 -13 20 -43 70 -67 111 -24 41 -69 118 -100 170 -31 52 -61 106 -68 120 -6 14 -19 36 -29 49 -17 23 -17 23 2 18 11 -3 49 -13 85 -21z"/>
</g>
<g id="layer108" fill="#e011b6" stroke="none">
<path d="M989 2985 c10 -11 22 -31 26 -44 4 -14 20 -42 36 -64 16 -22 29 -44 29 -49 0 -5 11 -24 25 -42 14 -18 25 -36 25 -40 0 -5 98 -177 141 -246 5 -8 21 -37 35 -65 15 -27 34 -60 44 -75 39 -57 152 -256 156 -274 2 -10 12 -29 22 -40 11 -12 24 -31 30 -42 11 -21 11 -21 -51 -8 -34 7 -87 22 -117 32 -30 11 -58 20 -62 21 -5 0 -9 1 -10 2 -2 0 -20 2 -40 4 -20 2 -61 11 -90 20 -156 48 -477 125 -482 116 -12 -26 6 -36 94 -58 52 -13 129 -33 170 -45 41 -12 109 -29 150 -38 41 -10 147 -37 235 -60 88 -23 181 -47 206 -52 40 -9 49 -16 68 -52 11 -22 35 -63 51 -91 28 -48 62 -108 116 -205 14 -25 33 -56 43 -70 10 -15 31 -48 45 -75 29 -55 55 -99 109 -190 20 -33 48 -82 62 -110 15 -27 32 -57 40 -65 7 -8 16 -25 19 -37 4 -13 11 -23 16 -23 9 0 87 124 102 163 4 10 20 37 36 60 15 23 39 63 52 89 14 27 28 48 31 48 4 0 10 12 14 28 3 15 13 34 20 42 7 8 25 38 40 65 14 28 44 79 66 115 21 36 52 90 68 121 l30 56 78 12 c43 6 98 15 123 20 62 12 227 37 330 52 47 6 103 15 125 19 78 16 181 30 245 34 l65 4 1 48 c1 27 -2 58 -7 71 -7 19 -12 21 -31 14 -13 -5 -66 -14 -118 -21 -52 -7 -156 -23 -230 -36 -74 -13 -175 -28 -224 -34 -49 -6 -123 -18 -165 -25 -115 -23 -119 -22 -87 19 14 19 26 41 26 49 0 27 25 35 105 33 44 -1 91 3 105 8 14 5 36 11 50 13 14 2 40 8 57 14 18 6 43 10 55 9 13 -1 25 -1 28 0 10 4 85 12 110 12 14 -1 47 6 73 15 27 8 64 13 82 11 21 -2 36 1 39 8 2 6 23 12 45 12 72 1 94 16 73 49 -5 9 -34 7 -117 -8 -61 -11 -173 -28 -250 -39 -77 -10 -189 -28 -249 -40 -122 -22 -146 -24 -146 -11 0 9 36 17 125 27 28 3 52 10 53 15 2 5 28 9 57 9 30 0 56 4 59 9 3 5 38 9 77 10 39 1 77 5 83 8 6 4 36 11 66 16 160 23 230 37 230 46 -1 23 -20 33 -56 27 -22 -4 -55 -8 -74 -11 -19 -2 -71 -11 -115 -20 -44 -8 -111 -19 -150 -24 -68 -9 -101 -14 -175 -28 -19 -3 -45 -5 -58 -4 -13 1 -40 -7 -62 -18 l-38 -20 38 72 c61 113 98 177 141 247 22 36 46 79 54 95 9 17 33 59 55 95 21 36 50 87 65 114 14 26 34 60 45 73 11 14 20 30 20 35 0 6 14 30 30 55 17 24 30 46 30 48 0 3 -519 6 -1154 7 -1154 3 -1155 3 -1137 -17z m2238 -32 c-7 -16 -24 -46 -38 -68 -14 -22 -32 -52 -40 -66 -12 -23 -55 -100 -99 -177 -8 -15 -26 -45 -39 -67 -24 -39 -30 -50 -82 -145 -14 -25 -32 -56 -42 -70 -17 -27 -57 -96 -83 -146 -14 -28 -24 -33 -68 -38 -28 -4 -118 -20 -201 -35 -240 -46 -424 -79 -505 -91 -41 -7 -100 -18 -130 -25 -30 -8 -104 -21 -164 -30 -61 -8 -112 -18 -115 -20 -8 -9 -41 28 -62 69 -10 23 -35 66 -54 96 -32 52 -54 90 -128 222 -18 31 -38 63 -44 70 -7 6 -13 16 -13 21 0 5 -15 34 -34 65 -84 140 -129 217 -158 270 -17 31 -42 75 -54 97 -13 22 -30 52 -39 68 l-16 27 1110 0 1110 0 -12 -27z m-1497 -1057 c36 -8 85 -18 110 -21 25 -4 88 -17 140 -30 52 -13 127 -29 165 -35 39 -7 113 -23 166 -36 52 -13 121 -26 152 -30 31 -4 57 -10 57 -14 0 -8 -41 -83 -100 -180 -18 -30 -46 -80 -63 -110 -16 -30 -36 -62 -43 -71 -8 -8 -14 -20 -14 -26 0 -6 -16 -35 -35 -64 -19 -30 -35 -58 -35 -64 0 -6 -5 -16 -12 -23 -7 -7 -26 -37 -43 -68 -35 -63 -43 -68 -59 -39 -6 11 -20 36 -32 55 -62 102 -154 262 -154 268 0 3 -11 22 -23 41 -13 20 -43 70 -67 111 -24 41 -69 118 -100 170 -31 52 -61 106 -68 120 -6 14 -19 36 -29 49 -17 23 -17 23 2 18 11 -3 49 -13 85 -21z"/>
<path d="M3531 2284 c0 -11 3 -14 6 -6 3 7 2 16 -1 19 -3 4 -6 -2 -5 -13z"/>
</g>
<g id="layer109" fill="#17ade6" stroke="none">
<path d="M989 2985 c10 -11 22 -31 26 -44 4 -14 20 -42 36 -64 16 -22 29 -44 29 -49 0 -5 11 -24 25 -42 14 -18 25 -36 25 -40 0 -5 98 -177 141 -246 5 -8 21 -37 35 -65 15 -27 34 -60 44 -75 39 -57 152 -256 156 -274 2 -10 12 -29 22 -40 11 -12 24 -31 30 -42 11 -21 11 -21 -51 -8 -34 7 -87 22 -117 32 -30 11 -58 20 -62 21 -5 0 -9 1 -10 2 -2 0 -20 2 -40 4 -20 2 -61 11 -90 20 -156 48 -477 125 -482 116 -12 -26 6 -36 94 -58 52 -13 129 -33 170 -45 41 -12 109 -29 150 -38 41 -10 147 -37 235 -60 88 -23 181 -47 206 -52 40 -9 49 -16 68 -52 11 -22 35 -63 51 -91 28 -48 62 -108 116 -205 14 -25 33 -56 43 -70 10 -15 31 -48 45 -75 29 -55 55 -99 109 -190 20 -33 48 -82 62 -110 15 -27 32 -57 40 -65 7 -8 16 -25 19 -37 4 -13 11 -23 16 -23 9 0 87 124 102 163 4 10 20 37 36 60 15 23 39 63 52 89 14 27 28 48 31 48 4 0 10 12 13 26 4 14 15 38 26 53 10 14 30 46 44 71 14 25 36 65 50 90 14 25 43 77 65 115 l39 70 73 12 c41 7 97 16 124 21 68 13 231 38 335 53 47 6 103 15 125 19 78 16 181 30 245 34 l65 4 1 48 c1 27 -2 58 -7 71 -7 19 -12 21 -31 14 -13 -5 -66 -14 -118 -21 -52 -7 -156 -23 -230 -36 -74 -13 -175 -28 -224 -34 -49 -6 -123 -18 -165 -25 -115 -23 -119 -22 -87 19 14 19 26 41 26 49 0 27 25 35 105 33 44 -1 91 3 105 8 14 5 36 11 50 13 14 2 40 8 57 14 18 6 43 10 55 9 13 -1 25 -1 28 0 10 4 85 12 110 12 14 -1 47 6 73 15 27 8 64 13 82 11 21 -2 36 1 39 8 2 6 23 12 45 12 72 1 94 16 73 49 -5 9 -34 7 -117 -8 -61 -11 -159 -26 -220 -34 -60 -8 -179 -27 -262 -42 -84 -15 -155 -24 -158 -21 -8 7 14 55 60 133 19 33 48 85 65 115 17 30 49 84 71 120 22 36 46 79 54 95 9 17 33 59 55 95 21 36 50 87 65 114 14 26 34 60 45 73 11 14 20 30 20 35 0 6 14 30 30 55 17 24 30 46 30 48 0 3 -519 6 -1154 7 -1154 3 -1155 3 -1137 -17z m2238 -32 c-7 -16 -24 -46 -38 -68 -14 -22 -32 -52 -40 -66 -12 -23 -55 -100 -99 -177 -8 -15 -26 -45 -39 -67 -24 -39 -30 -50 -82 -145 -14 -25 -32 -56 -42 -70 -17 -27 -57 -96 -83 -146 -14 -28 -24 -33 -68 -38 -28 -4 -118 -20 -201 -35 -240 -46 -424 -79 -505 -91 -41 -7 -100 -18 -130 -25 -30 -8 -104 -21 -164 -30 -61 -8 -112 -18 -115 -20 -8 -9 -41 28 -62 69 -10 23 -35 66 -54 96 -32 52 -54 90 -128 222 -18 31 -38 63 -44 70 -7 6 -13 16 -13 21 0 5 -15 34 -34 65 -84 140 -129 217 -158 270 -17 31 -42 75 -54 97 -13 22 -30 52 -39 68 l-16 27 1110 0 1110 0 -12 -27z m-1497 -1057 c36 -8 85 -18 110 -21 25 -4 88 -17 140 -30 52 -13 127 -29 165 -35 39 -7 113 -23 166 -36 52 -13 121 -26 152 -30 31 -4 57 -10 57 -14 0 -8 -41 -83 -100 -180 -18 -30 -46 -80 -63 -110 -16 -30 -36 -62 -43 -71 -8 -8 -14 -20 -14 -26 0 -6 -16 -35 -35 -64 -19 -30 -35 -58 -35 -64 0 -6 -5 -16 -12 -23 -7 -7 -26 -37 -43 -68 -35 -63 -43 -68 -59 -39 -6 11 -20 36 -32 55 -62 102 -154 262 -154 268 0 3 -11 22 -23 41 -13 20 -43 70 -67 111 -24 41 -69 118 -100 170 -31 52 -61 106 -68 120 -6 14 -19 36 -29 49 -17 23 -17 23 2 18 11 -3 49 -13 85 -21z"/>
</g>
<g id="layer110" fill="#f3b80d" stroke="none">
<path d="M935 3423 c4 -10 12 -33 17 -52 6 -19 21 -59 35 -88 32 -71 58 -71 83 2 9 28 27 70 39 94 26 55 26 61 1 61 -13 0 -24 -10 -30 -25 -8 -21 -16 -25 -50 -25 -31 0 -43 5 -56 25 -19 29 -50 35 -39 8z m115 -75 c-1 -13 -29 -68 -30 -58 0 3 -4 20 -9 38 -9 30 -8 32 15 32 13 0 24 -6 24 -12z"/>
<path d="M1190 3427 c-25 -12 -49 -36 -50 -49 0 -5 11 -8 25 -8 15 0 25 6 25 14 0 7 9 16 21 19 62 16 65 -38 4 -59 -64 -21 -81 -58 -45 -94 33 -33 113 -19 123 21 6 23 -15 25 -47 4 -19 -13 -25 -13 -41 -1 -17 12 -13 16 41 43 69 35 79 59 40 98 -27 27 -56 31 -96 12z"/>
<path d="M1370 3415 c-19 -21 -24 -39 -28 -105 -4 -76 -4 -80 17 -80 20 0 21 5 21 80 0 70 2 81 20 90 49 26 70 -10 70 -122 0 -36 4 -48 15 -48 15 0 20 43 16 135 -4 73 -82 102 -131 50z"/>
<path d="M1680 3356 l0 -86 -30 0 c-23 0 -30 -4 -30 -20 0 -18 7 -20 80 -20 73 0 80 2 80 20 0 15 -7 20 -30 20 l-29 0 -3 82 c-3 70 -6 83 -20 86 -16 3 -18 -6 -18 -82z"/>
<path d="M1790 3365 c0 -60 3 -75 15 -75 8 0 15 5 15 12 0 9 3 9 12 0 15 -15 48 -16 48 -2 0 6 -11 15 -24 19 -28 11 -36 29 -36 82 0 28 -4 39 -15 39 -12 0 -15 -15 -15 -75z"/>
<path d="M1918 3433 c-46 -12 -23 -79 30 -85 14 -2 27 -9 30 -17 3 -10 -5 -12 -38 -6 -40 7 -41 6 -31 -14 9 -16 21 -21 51 -21 47 0 57 14 61 87 3 57 -3 72 -24 55 -8 -7 -18 -7 -27 -2 -16 10 -24 11 -52 3z m62 -38 c7 -9 10 -18 7 -21 -11 -11 -57 6 -57 21 0 20 34 19 50 0z"/>
<path d="M2060 3365 c0 -68 2 -75 20 -75 11 0 20 5 20 12 0 9 3 9 12 0 17 -17 65 -15 72 4 3 9 6 42 6 75 0 46 -3 59 -15 59 -11 0 -15 -11 -15 -37 0 -62 -10 -84 -34 -81 -18 3 -21 11 -24 61 -3 49 -6 57 -22 57 -18 0 -20 -7 -20 -75z"/>
<path d="M2258 3434 c-9 -3 -19 -12 -22 -20 -5 -13 0 -15 34 -9 51 9 54 -10 6 -30 -42 -18 -50 -29 -42 -61 6 -21 12 -24 49 -24 40 0 67 13 67 32 0 12 -34 10 -46 -2 -11 -11 -44 -4 -44 9 0 4 20 12 44 19 72 19 73 75 1 86 -17 2 -37 2 -47 0z"/>
<path d="M2550 3424 c0 -9 11 -42 24 -73 14 -31 29 -69 34 -86 11 -39 48 -47 61 -13 5 13 18 44 29 68 11 25 22 54 25 65 3 11 8 28 12 38 11 27 -22 21 -41 -8 -13 -19 -25 -25 -54 -25 -30 0 -39 5 -48 25 -13 28 -42 34 -42 9z m113 -70 c7 -7 -13 -64 -23 -64 -4 0 -10 8 -13 18 -2 9 -8 25 -12 35 -6 13 -2 17 17 17 14 0 27 -3 31 -6z"/>
<path d="M2770 3335 c0 -87 3 -105 15 -105 12 0 15 18 15 105 0 87 -3 105 -15 105 -12 0 -15 -18 -15 -105z"/>
<path d="M2930 3335 c0 -98 1 -105 20 -105 18 0 20 7 20 84 l0 85 47 3 c36 2 49 7 51 21 3 15 -5 17 -67 17 l-71 0 0 -105z"/>
<path d="M3119 3433 c-43 -11 -20 -79 28 -85 14 -2 28 -9 31 -17 3 -10 -4 -12 -37 -6 -24 4 -41 3 -41 -3 0 -20 30 -33 72 -30 l43 3 3 73 c2 59 0 72 -13 72 -8 0 -15 -5 -15 -10 0 -7 -6 -7 -19 0 -20 10 -25 11 -52 3z m59 -46 c4 -18 -14 -22 -37 -8 -7 5 -10 14 -6 20 10 17 39 9 43 -12z"/>
<path d="M3260 3335 c0 -87 3 -105 15 -105 11 0 15 11 15 36 0 34 1 35 30 29 47 -10 80 16 80 63 0 43 -6 55 -37 71 -18 9 -28 9 -45 0 -16 -9 -23 -9 -26 0 -2 6 -10 11 -18 11 -11 0 -14 -21 -14 -105z m98 52 c7 -34 -7 -67 -28 -67 -24 0 -39 26 -32 54 10 39 53 48 60 13z"/>
<path d="M2438 3383 c-2 -22 -9 -29 -30 -31 -39 -5 -37 -32 2 -32 25 0 30 -4 30 -25 0 -18 5 -25 20 -25 15 0 20 7 20 25 0 20 5 25 25 25 16 0 25 6 25 15 0 9 -9 15 -24 15 -19 0 -25 6 -28 27 -4 39 -36 43 -40 6z"/>
<path d="M989 2985 c10 -11 22 -31 26 -44 4 -14 20 -42 36 -64 16 -22 29 -44 29 -49 0 -5 11 -24 25 -42 14 -18 25 -36 25 -40 0 -5 98 -177 141 -246 5 -8 21 -37 35 -65 15 -27 34 -60 44 -75 39 -57 152 -256 156 -274 2 -10 12 -29 22 -40 11 -12 24 -31 30 -42 11 -21 11 -21 -51 -8 -34 7 -87 22 -117 32 -30 11 -58 20 -62 21 -5 0 -9 1 -10 2 -2 0 -20 2 -40 4 -20 2 -61 11 -90 20 -156 48 -477 125 -482 116 -12 -26 6 -36 94 -58 52 -13 129 -33 170 -45 41 -12 109 -29 150 -38 41 -10 147 -37 235 -60 88 -23 181 -47 206 -52 40 -9 49 -16 68 -52 11 -22 35 -63 51 -91 28 -48 62 -108 116 -205 14 -25 33 -56 43 -70 10 -15 31 -48 45 -75 29 -55 55 -99 109 -190 20 -33 48 -82 62 -110 15 -27 32 -57 40 -65 7 -8 16 -25 19 -37 4 -13 11 -23 16 -23 9 0 87 124 102 163 4 10 20 37 36 60 15 23 39 63 52 89 14 27 28 48 31 48 4 0 10 12 13 26 4 14 15 38 26 53 10 14 30 46 44 71 14 25 36 65 50 90 14 25 43 77 65 115 l39 70 73 12 c41 7 97 16 124 21 68 13 231 38 335 53 47 6 103 15 125 19 78 16 181 30 245 34 l65 4 1 48 c1 27 -2 58 -7 71 -7 19 -12 21 -31 14 -13 -5 -66 -14 -118 -21 -52 -7 -156 -23 -230 -36 -74 -13 -175 -28 -224 -34 -49 -6 -123 -18 -165 -25 -115 -23 -119 -22 -87 19 14 19 26 40 26 46 0 6 14 32 32 58 17 25 43 66 56 91 14 26 36 64 48 86 13 22 37 65 54 95 17 30 49 84 71 120 22 36 46 79 54 95 9 17 33 59 55 95 21 36 50 87 65 114 14 26 34 60 45 73 11 14 20 30 20 35 0 6 14 30 30 55 17 24 30 46 30 48 0 3 -519 6 -1154 7 -1154 3 -1155 3 -1137 -17z m2238 -32 c-7 -16 -24 -46 -38 -68 -14 -22 -32 -52 -40 -66 -12 -23 -55 -100 -99 -177 -8 -15 -26 -45 -39 -67 -24 -39 -30 -50 -82 -145 -14 -25 -32 -56 -42 -70 -17 -27 -57 -96 -83 -146 -14 -28 -24 -33 -68 -38 -28 -4 -118 -20 -201 -35 -240 -46 -424 -79 -505 -91 -41 -7 -100 -18 -130 -25 -30 -8 -104 -21 -164 -30 -61 -8 -112 -18 -115 -20 -8 -9 -41 28 -62 69 -10 23 -35 66 -54 96 -32 52 -54 90 -128 222 -18 31 -38 63 -44 70 -7 6 -13 16 -13 21 0 5 -15 34 -34 65 -84 140 -129 217 -158 270 -17 31 -42 75 -54 97 -13 22 -30 52 -39 68 l-16 27 1110 0 1110 0 -12 -27z m-1497 -1057 c36 -8 85 -18 110 -21 25 -4 88 -17 140 -30 52 -13 127 -29 165 -35 39 -7 113 -23 166 -36 52 -13 121 -26 152 -30 31 -4 57 -10 57 -14 0 -8 -41 -83 -100 -180 -18 -30 -46 -80 -63 -110 -16 -30 -36 -62 -43 -71 -8 -8 -14 -20 -14 -26 0 -6 -16 -35 -35 -64 -19 -30 -35 -58 -35 -64 0 -6 -5 -16 -12 -23 -7 -7 -26 -37 -43 -68 -35 -63 -43 -68 -59 -39 -6 11 -20 36 -32 55 -62 102 -154 262 -154 268 0 3 -11 22 -23 41 -13 20 -43 70 -67 111 -24 41 -69 118 -100 170 -31 52 -61 106 -68 120 -6 14 -19 36 -29 49 -17 23 -17 23 2 18 11 -3 49 -13 85 -21z"/>
</g>
<g id="layer111" fill="#f9c704" stroke="none">
<path d="M935 3423 c4 -10 12 -33 17 -52 6 -19 21 -59 35 -88 32 -71 58 -71 83 2 9 28 27 70 39 94 26 55 26 61 1 61 -13 0 -24 -10 -30 -25 -8 -21 -16 -25 -50 -25 -31 0 -43 5 -56 25 -19 29 -50 35 -39 8z m45 -39 c0 -8 -4 -12 -10 -9 -5 3 -10 10 -10 16 0 5 5 9 10 9 6 0 10 -7 10 -16z m110 -8 c0 -22 -19 -30 -36 -15 -12 10 -13 9 -8 -4 3 -8 -1 -28 -9 -44 l-15 -28 -9 35 c-7 24 -6 37 1 42 7 5 7 8 1 9 -8 1 29 11 68 18 4 0 7 -5 7 -13z m-98 -41 c6 -29 -7 -34 -15 -6 -4 17 0 31 9 31 1 0 4 -11 6 -25z m58 -64 c-12 -23 -40 -29 -40 -8 0 11 40 36 48 31 2 -1 -1 -12 -8 -23z"/>
<path d="M1190 3427 c-25 -12 -49 -36 -50 -49 0 -5 11 -8 25 -8 15 0 25 6 25 14 0 7 9 16 21 19 62 16 65 -38 4 -59 -64 -21 -81 -58 -45 -94 33 -33 113 -19 123 21 6 23 -15 25 -47 4 -19 -13 -25 -13 -41 -1 -17 12 -13 16 41 43 69 35 79 59 40 98 -27 27 -56 31 -96 12z m98 -41 c2 -9 -1 -16 -7 -16 -6 0 -11 7 -11 15 0 9 -7 18 -15 21 -8 4 -15 11 -15 16 0 16 45 -17 48 -36z m-91 -78 c-12 -13 -24 -19 -25 -15 -5 11 18 37 34 37 9 0 5 -8 -9 -22z"/>
<path d="M1680 3356 l0 -86 -30 0 c-23 0 -30 -4 -30 -20 0 -18 7 -20 80 -20 73 0 80 2 80 20 0 15 -7 20 -30 20 l-29 0 -3 82 c-3 70 -6 83 -20 86 -16 3 -18 -6 -18 -82z m26 -16 l0 -90 -35 1 c-32 1 -33 2 -11 8 24 6 25 11 28 89 2 45 6 82 10 82 4 0 7 -41 8 -90z"/>
<path d="M1918 3433 c-46 -12 -23 -79 30 -85 14 -2 27 -9 30 -17 3 -10 -5 -12 -38 -6 -40 7 -41 6 -31 -14 9 -16 21 -21 51 -21 47 0 57 14 61 87 3 57 -3 72 -24 55 -8 -7 -18 -7 -27 -2 -16 10 -24 11 -52 3z m92 -59 c0 -34 -4 -53 -10 -49 -5 3 -10 14 -10 24 0 13 -10 20 -30 25 -18 3 -30 12 -30 21 0 9 -4 13 -10 10 -5 -3 -10 -1 -10 5 0 14 50 2 74 -19 11 -9 16 -10 12 -3 -8 13 -2 42 9 42 3 0 5 -25 5 -56z m-20 -64 c0 -5 -5 -10 -11 -10 -5 0 -7 5 -4 10 3 6 8 10 11 10 2 0 4 -4 4 -10z m-33 -7 c-4 -3 -10 -3 -14 0 -3 4 0 7 7 7 7 0 10 -3 7 -7z"/>
<path d="M2273 3432 c5 -6 0 -8 -12 -5 -11 3 -21 -2 -25 -12 -5 -15 -1 -16 34 -10 27 5 40 3 40 -4 0 -7 -7 -14 -15 -17 -8 -4 -13 -10 -10 -14 3 -5 -3 -6 -13 -3 -22 5 -45 -19 -40 -43 3 -15 5 -16 18 -3 8 8 34 20 57 27 46 14 65 44 41 68 -17 17 -84 32 -75 16z m70 -36 c6 -16 -2 -28 -14 -20 -12 7 -11 34 0 34 5 0 11 -6 14 -14z"/>
<path d="M2550 3424 c0 -8 10 -38 22 -65 14 -34 24 -46 29 -37 6 9 11 6 18 -12 5 -14 10 -19 10 -12 1 19 -19 55 -37 66 -12 7 -12 10 -1 16 10 7 10 14 1 34 -13 28 -42 35 -42 10z m30 -14 c0 -5 -2 -10 -4 -10 -3 0 -8 5 -11 10 -3 6 -1 10 4 10 6 0 11 -4 11 -10z"/>
<path d="M2703 3428 c-24 -31 -27 -41 -10 -35 12 5 17 1 17 -13 0 -11 -4 -20 -8 -20 -5 0 -15 -19 -22 -42 -10 -35 -14 -39 -20 -24 -6 17 -7 18 -13 3 -3 -9 -2 -17 3 -17 6 0 10 -7 10 -16 0 -24 -33 -13 -47 16 -15 30 -17 12 -3 -24 12 -33 47 -35 59 -3 5 12 18 43 29 67 11 25 22 54 25 65 3 11 8 28 12 38 8 20 -17 24 -32 5z"/>
<path d="M3260 3335 c0 -87 3 -105 15 -105 11 0 15 10 14 38 -1 33 -2 34 -9 12 -5 -17 -8 -1 -8 50 1 51 3 64 7 40 7 -40 38 -80 61 -80 34 0 60 30 60 68 0 43 -7 55 -37 70 -24 13 -53 6 -53 -12 0 -6 -7 -3 -14 7 -29 37 -36 19 -36 -88z m17 78 c-4 -3 -7 0 -7 7 0 7 3 10 7 7 3 -4 3 -10 0 -14z m73 -3 c0 -5 9 -10 20 -10 11 0 20 -7 20 -15 0 -18 -16 -20 -23 -2 -3 6 -6 2 -6 -10 -2 -35 -12 -53 -32 -53 -35 0 -44 53 -15 87 13 15 36 17 36 3z m26 -86 c-10 -14 -20 -23 -23 -20 -3 3 2 17 11 32 10 14 20 23 23 20 3 -3 -2 -17 -11 -32z"/>
<path d="M2438 3383 c-2 -22 -9 -29 -30 -31 -36 -4 -38 -32 -2 -32 14 0 23 4 19 9 -3 5 4 12 14 16 14 4 18 12 14 23 -4 11 2 9 19 -8 13 -14 23 -28 21 -32 -2 -5 5 -8 16 -8 12 0 21 7 21 15 0 9 -9 15 -24 15 -19 0 -25 6 -28 27 -4 39 -36 43 -40 6z"/>
<path d="M2305 3319 c-4 -6 -14 -8 -22 -5 -8 3 -21 -1 -29 -9 -14 -13 -11 -15 28 -15 41 0 68 13 68 32 0 12 -38 10 -45 -3z"/>
<path d="M989 2985 c10 -11 22 -31 26 -44 4 -14 20 -42 36 -64 16 -22 29 -44 29 -49 0 -5 11 -24 25 -42 14 -18 25 -36 25 -40 0 -5 98 -177 141 -246 5 -8 21 -37 35 -65 15 -27 34 -60 44 -75 39 -57 152 -256 156 -274 2 -10 12 -29 22 -40 11 -12 24 -31 30 -42 11 -21 11 -21 -51 -8 -34 7 -87 22 -117 32 -30 11 -58 20 -62 21 -5 0 -9 1 -10 2 -2 0 -20 2 -40 4 -20 2 -61 11 -90 20 -156 48 -477 125 -482 116 -12 -26 6 -36 94 -58 52 -13 129 -33 170 -45 41 -12 109 -29 150 -38 41 -10 147 -37 235 -60 88 -23 181 -47 206 -52 40 -9 49 -16 68 -52 11 -22 35 -63 51 -91 28 -48 62 -108 116 -205 14 -25 33 -56 43 -70 10 -15 31 -48 45 -75 29 -55 55 -99 109 -190 20 -33 48 -82 62 -110 15 -27 32 -57 40 -65 7 -8 16 -25 19 -37 4 -13 11 -23 16 -23 9 0 87 124 102 163 4 10 20 37 36 60 15 23 39 63 52 89 14 27 28 48 31 48 4 0 10 12 14 28 3 15 13 34 20 42 7 8 25 38 40 65 14 28 44 79 66 115 21 36 44 75 49 88 5 12 26 47 45 78 44 69 92 93 194 96 39 2 71 7 71 12 0 5 2 7 6 4 4 -5 46 5 109 27 16 6 17 5 5 -4 -19 -13 23 -9 225 25 50 8 114 17 144 20 29 3 61 9 71 14 11 6 21 5 28 -2 8 -8 18 -6 36 6 14 9 29 16 33 16 13 0 43 -56 35 -65 -4 -5 -2 -5 5 -2 13 8 14 91 2 124 -7 19 -12 21 -31 14 -13 -5 -66 -14 -118 -21 -52 -7 -156 -23 -230 -36 -74 -13 -175 -28 -224 -34 -49 -6 -123 -18 -165 -25 -115 -23 -119 -22 -87 19 14 19 26 40 26 46 0 6 14 32 32 58 17 25 43 66 56 91 14 26 36 64 48 86 13 22 37 65 54 95 17 30 49 84 71 120 22 36 46 79 54 95 9 17 33 59 55 95 21 36 50 87 65 114 14 26 34 60 45 73 11 14 20 30 20 35 0 6 14 30 30 55 17 24 30 46 30 48 0 3 -519 6 -1154 7 -1154 3 -1155 3 -1137 -17z m2238 -32 c-7 -16 -24 -46 -38 -68 -14 -22 -32 -52 -40 -66 -12 -23 -55 -100 -99 -177 -8 -15 -26 -45 -39 -67 -24 -39 -30 -50 -82 -145 -14 -25 -32 -56 -42 -70 -17 -27 -57 -96 -83 -146 -14 -28 -24 -33 -68 -38 -28 -4 -118 -20 -201 -35 -240 -46 -424 -79 -505 -91 -41 -7 -100 -18 -130 -25 -30 -8 -104 -21 -164 -30 -61 -8 -112 -18 -115 -20 -8 -9 -41 28 -62 69 -10 23 -35 66 -54 96 -32 52 -54 90 -128 222 -18 31 -38 63 -44 70 -7 6 -13 16 -13 21 0 5 -15 34 -34 65 -84 140 -129 217 -158 270 -17 31 -42 75 -54 97 -13 22 -30 52 -39 68 l-16 27 1110 0 1110 0 -12 -27z m-1497 -1057 c36 -8 85 -18 110 -21 25 -4 88 -17 140 -30 52 -13 127 -29 165 -35 39 -7 113 -23 166 -36 52 -13 121 -26 152 -30 31 -4 57 -10 57 -14 0 -8 -41 -83 -100 -180 -18 -30 -46 -80 -63 -110 -16 -30 -36 -62 -43 -71 -8 -8 -14 -20 -14 -26 0 -6 -16 -35 -35 -64 -19 -30 -35 -58 -35 -64 0 -6 -5 -16 -12 -23 -7 -7 -26 -37 -43 -68 -35 -63 -43 -68 -59 -39 -6 11 -20 36 -32 55 -62 102 -154 262 -154 268 0 3 -11 22 -23 41 -13 20 -43 70 -67 111 -24 41 -69 118 -100 170 -31 52 -61 106 -68 120 -6 14 -19 36 -29 49 -17 23 -17 23 2 18 11 -3 49 -13 85 -21z"/>
<path d="M3323 1953 c4 -3 10 -3 14 0 3 4 0 7 -7 7 -7 0 -10 -3 -7 -7z"/>
<path d="M3163 1913 c4 -3 10 -3 14 0 3 4 0 7 -7 7 -7 0 -10 -3 -7 -7z"/>
<path d="M3028 1893 c6 -2 18 -2 25 0 6 3 1 5 -13 5 -14 0 -19 -2 -12 -5z"/>
<path d="M2648 1833 c6 -2 18 -2 25 0 6 3 1 5 -13 5 -14 0 -19 -2 -12 -5z"/>
</g>
<g id="layer112" fill="#e4b52c" stroke="none">
<path d="M935 3423 c4 -10 12 -33 17 -52 6 -19 21 -59 35 -88 32 -71 58 -71 83 2 9 28 27 70 39 94 26 55 26 61 1 61 -13 0 -24 -10 -30 -25 -8 -21 -16 -25 -50 -25 -31 0 -43 5 -56 25 -19 29 -50 35 -39 8z m52 -70 c12 -52 9 -70 -5 -32 -16 44 -22 79 -14 79 5 0 14 -21 19 -47z m104 25 c-5 -13 -15 -23 -22 -23 -8 0 -21 -16 -30 -35 l-16 -35 -10 35 c-5 19 -6 37 -1 38 4 2 6 8 2 13 -3 5 7 9 23 9 15 0 35 5 43 10 20 13 20 13 11 -12z m-34 -93 c-11 -36 -47 -51 -47 -20 0 8 7 15 15 15 8 0 19 9 25 20 16 30 19 24 7 -15z"/>
<path d="M1190 3427 c-25 -12 -49 -36 -50 -49 0 -5 11 -8 25 -8 15 0 25 6 25 14 0 15 35 27 56 19 8 -3 14 -13 15 -22 0 -12 2 -13 6 -2 3 8 -2 20 -12 28 -26 18 -13 26 13 7 26 -18 28 -46 5 -65 -12 -10 -15 -11 -9 -1 6 10 1 11 -21 6 -85 -20 -115 -62 -73 -104 33 -33 113 -19 123 21 6 23 -15 25 -47 4 -19 -13 -25 -13 -41 -1 -17 12 -13 16 41 43 69 35 79 59 40 98 -27 27 -56 31 -96 12z m-13 -34 c-4 -3 -7 0 -7 7 0 7 3 10 7 7 3 -4 3 -10 0 -14z m20 -85 c-12 -13 -24 -19 -25 -15 -5 11 18 37 34 37 9 0 5 -8 -9 -22z m1 -63 c-3 -3 -9 2 -12 12 -6 14 -5 15 5 6 7 -7 10 -15 7 -18z"/>
<path d="M1372 3417 c-23 -25 -29 -47 -12 -47 6 0 10 -4 10 -10 0 -5 -7 -7 -15 -4 -12 5 -15 -5 -15 -60 0 -59 2 -66 20 -66 18 0 20 7 20 80 0 65 3 81 18 89 16 10 16 10 -1 11 -10 0 -15 5 -12 10 3 6 17 10 31 10 14 0 23 -4 19 -9 -3 -6 2 -14 11 -19 11 -6 17 -30 21 -90 4 -60 10 -82 19 -82 10 0 14 15 15 48 3 95 -2 127 -23 145 -29 25 -80 22 -106 -6z m112 -13 c3 -9 6 -23 6 -32 -1 -12 -5 -10 -15 8 -8 14 -14 28 -15 33 0 13 18 7 24 -9z m3 -131 c-2 -16 -4 -3 -4 27 0 30 2 43 4 28 2 -16 2 -40 0 -55z m-118 15 c0 -27 -2 -29 -8 -13 -5 11 -6 26 -4 33 8 21 13 13 12 -20z"/>
<path d="M1680 3356 l0 -86 -30 0 c-23 0 -30 -4 -30 -20 0 -18 7 -20 80 -20 73 0 80 2 80 20 0 15 -7 20 -30 20 l-29 0 -3 82 c-3 70 -6 83 -20 86 -16 3 -18 -6 -18 -82z m24 -4 c0 -42 4 -83 9 -89 7 -10 -1 -13 -34 -12 -35 1 -39 2 -19 8 24 6 25 11 28 89 4 104 17 108 16 4z"/>
<path d="M1790 3365 c0 -64 3 -75 17 -75 13 0 14 3 5 12 -13 13 -16 38 -4 38 4 0 12 -10 17 -22 6 -13 20 -24 33 -26 29 -4 28 16 -2 27 -28 11 -36 29 -36 82 0 28 -4 39 -15 39 -12 0 -15 -15 -15 -75z"/>
<path d="M1927 3434 c-10 -10 2 -24 20 -24 9 0 24 -7 34 -16 16 -15 17 -14 12 4 -2 11 0 23 6 26 7 5 11 -11 11 -49 0 -35 -4 -54 -10 -50 -5 3 -10 14 -10 24 0 13 -10 20 -30 25 -18 3 -30 12 -30 21 0 9 -4 13 -10 10 -5 -3 -10 2 -11 12 0 15 -2 14 -11 -5 -14 -28 11 -59 50 -64 14 -2 27 -9 30 -17 3 -10 -5 -12 -38 -6 -40 7 -41 6 -31 -14 9 -16 21 -21 51 -21 47 0 57 14 61 87 3 57 -3 72 -24 55 -8 -7 -18 -7 -27 -2 -18 11 -34 13 -43 4z m63 -124 c0 -5 -5 -10 -11 -10 -5 0 -7 5 -4 10 3 6 8 10 11 10 2 0 4 -4 4 -10z m-33 -7 c-4 -3 -10 -3 -14 0 -3 4 0 7 7 7 7 0 10 -3 7 -7z"/>
<path d="M2060 3365 c0 -68 2 -75 20 -75 11 0 20 5 20 10 0 6 -7 10 -15 10 -12 0 -15 13 -15 60 0 33 4 60 10 60 6 0 10 -24 10 -53 0 -61 19 -87 62 -87 32 0 38 15 38 91 0 46 -3 59 -15 59 -11 0 -15 -11 -15 -37 0 -62 -10 -84 -34 -81 -18 3 -21 11 -24 61 -3 49 -6 57 -22 57 -18 0 -20 -7 -20 -75z m106 -62 c-11 -11 -17 4 -9 23 7 18 8 18 11 1 2 -10 1 -21 -2 -24z"/>
<path d="M2275 3430 c5 -9 2 -10 -13 -6 -13 5 -22 1 -26 -10 -5 -13 0 -15 34 -9 52 9 53 -9 3 -32 -25 -12 -39 -26 -41 -40 -3 -17 0 -21 12 -17 9 3 16 2 16 -4 0 -6 -6 -13 -12 -15 -7 -3 7 -6 33 -6 41 -1 69 11 69 31 0 12 -34 10 -46 -2 -12 -12 -44 -3 -44 12 0 5 -4 6 -10 3 -6 -3 -7 1 -3 10 4 13 8 14 14 4 6 -10 16 -10 48 -1 69 21 65 74 -8 88 -26 6 -32 4 -26 -6z m65 -30 c0 -5 1 -13 3 -17 1 -3 -5 -7 -14 -8 -12 -2 -15 3 -12 16 6 20 23 27 23 9z m-43 -37 c-4 -3 -10 -3 -14 0 -3 4 0 7 7 7 7 0 10 -3 7 -7z"/>
<path d="M2554 3408 c7 -36 17 -49 23 -30 3 6 9 10 14 6 12 -7 11 13 -1 37 -6 10 -18 19 -27 19 -12 0 -14 -7 -9 -32z m26 2 c0 -5 -2 -10 -4 -10 -3 0 -8 5 -11 10 -3 6 -1 10 4 10 6 0 11 -4 11 -10z"/>
<path d="M2703 3428 c-24 -31 -27 -41 -10 -35 12 5 17 1 17 -12 0 -11 -4 -21 -10 -23 -5 -1 -11 -12 -13 -23 -1 -11 -8 -29 -15 -40 l-11 -20 -1 20 c0 17 -2 17 -10 5 -6 -10 -6 -16 0 -18 6 -2 10 -10 10 -19 0 -23 -33 -11 -47 17 -15 30 -17 12 -3 -24 12 -33 47 -35 59 -3 5 12 18 43 29 67 11 25 22 54 25 65 3 11 8 28 12 38 8 20 -17 24 -32 5z"/>
<path d="M2770 3335 c0 -87 3 -105 15 -105 8 0 15 9 15 21 0 11 -4 17 -10 14 -6 -4 -9 12 -9 42 l2 48 7 -40 c6 -32 7 -24 9 43 1 67 -2 82 -14 82 -12 0 -15 -18 -15 -105z m17 68 c-4 -3 -7 0 -7 7 0 7 3 10 7 7 3 -4 3 -10 0 -14z m0 -35 c-3 -8 -6 -5 -6 6 -1 11 2 17 5 13 3 -3 4 -12 1 -19z"/>
<path d="M2932 3358 l2 -83 3 73 c3 54 7 72 18 72 9 0 12 -6 8 -16 -3 -8 -6 -43 -7 -77 -1 -44 -5 -61 -13 -59 -7 1 -13 -7 -13 -18 0 -13 7 -20 20 -20 18 0 20 7 20 84 l0 85 47 3 c36 2 49 7 51 21 3 15 -5 17 -67 17 l-71 0 2 -82z m115 55 c-4 -3 -7 0 -7 7 0 7 3 10 7 7 3 -4 3 -10 0 -14z"/>
<path d="M3119 3433 c-43 -11 -20 -79 28 -85 14 -2 28 -9 31 -17 3 -10 -4 -12 -37 -6 -24 4 -41 3 -41 -3 0 -20 30 -33 72 -30 34 2 43 7 45 23 2 11 0 14 -3 8 -3 -7 -9 -13 -14 -13 -13 0 -20 43 -9 56 7 9 7 20 -2 36 -19 36 -32 42 -70 31z m59 -46 c4 -18 -14 -22 -37 -8 -7 5 -10 14 -6 20 10 17 39 9 43 -12z m-58 3 c0 -5 -2 -10 -4 -10 -3 0 -8 5 -11 10 -3 6 -1 10 4 10 6 0 11 -4 11 -10z"/>
<path d="M3190 3429 c0 -5 4 -8 9 -4 6 3 12 -16 14 -42 l3 -48 2 53 c2 40 -1 52 -13 52 -8 0 -15 -5 -15 -11z"/>
<path d="M3260 3335 c0 -87 3 -105 15 -105 11 0 15 10 14 38 -1 33 -2 34 -9 12 -5 -17 -8 4 -9 64 -1 49 2 86 6 83 3 -4 6 -21 5 -39 -1 -39 33 -98 57 -98 35 0 61 29 61 68 0 43 -7 55 -37 70 -24 13 -53 6 -53 -12 0 -6 -7 -3 -14 7 -29 37 -36 19 -36 -88z m90 75 c0 -5 9 -10 20 -10 11 0 20 -7 20 -15 0 -18 -16 -20 -23 -2 -3 6 -6 2 -6 -10 -2 -35 -12 -53 -32 -53 -35 0 -44 53 -15 87 13 15 36 17 36 3z m40 -59 c0 -11 -39 -59 -40 -49 0 14 23 58 32 58 4 0 8 -4 8 -9z"/>
<path d="M2438 3383 c-2 -22 -9 -29 -30 -31 -36 -4 -38 -32 -2 -32 14 0 23 4 20 9 -3 5 1 11 9 15 8 3 15 16 15 28 1 22 1 22 16 -4 8 -16 22 -28 32 -28 15 0 15 -2 2 -10 -12 -8 -11 -10 8 -10 13 0 22 6 22 15 0 9 -9 15 -24 15 -19 0 -25 6 -28 27 -4 39 -36 43 -40 6z"/>
<path d="M2620 3380 c8 -5 11 -10 5 -11 -5 0 1 -4 15 -8 17 -5 24 -13 22 -27 -2 -19 -2 -19 9 0 10 15 9 22 -4 31 -9 7 -14 15 -10 18 3 4 -7 7 -23 7 -22 0 -26 -3 -14 -10z"/>
<path d="M2577 3363 c-3 -3 -1 -16 5 -29 8 -18 14 -21 19 -12 6 9 11 5 18 -12 6 -16 10 -19 10 -8 1 9 -6 23 -14 31 -8 8 -12 17 -9 20 3 2 -2 7 -10 10 -8 3 -16 3 -19 0z"/>
<path d="M2441 3298 c-1 -22 4 -28 19 -28 15 0 20 7 20 26 0 27 -19 24 -21 -4 -1 -11 -4 -8 -9 8 l-8 25 -1 -27z"/>
<path d="M989 2985 c10 -11 22 -31 26 -44 4 -14 20 -42 36 -64 16 -22 29 -44 29 -49 0 -5 11 -24 25 -42 14 -18 25 -36 25 -40 0 -5 98 -177 141 -246 5 -8 21 -37 35 -65 15 -27 34 -60 44 -75 39 -57 152 -256 156 -274 2 -10 12 -29 22 -40 11 -12 24 -31 30 -42 11 -21 11 -21 -51 -8 -34 7 -87 22 -117 32 -30 11 -58 20 -62 21 -5 0 -9 1 -10 2 -2 0 -20 2 -40 4 -20 2 -61 11 -90 20 -156 48 -477 125 -482 116 -12 -26 6 -36 94 -58 52 -13 129 -33 170 -45 41 -12 109 -29 150 -38 41 -10 147 -37 235 -60 88 -23 181 -47 206 -52 40 -9 49 -16 68 -52 11 -22 35 -63 51 -91 28 -48 62 -108 116 -205 14 -25 33 -56 43 -70 10 -15 31 -48 45 -75 29 -55 55 -99 109 -190 20 -33 48 -82 62 -110 15 -27 32 -57 40 -65 7 -8 16 -25 19 -37 4 -13 11 -23 16 -23 9 0 87 124 102 163 4 10 20 37 36 60 15 23 39 63 52 89 14 27 28 48 31 48 4 0 10 12 14 28 3 15 13 34 20 42 7 8 25 38 40 65 14 28 42 77 62 110 19 33 48 83 64 112 48 88 53 96 74 116 11 10 13 15 5 11 -10 -5 -12 -4 -5 3 15 15 218 52 420 78 72 9 144 20 160 25 28 9 281 42 333 44 24 1 27 12 12 50 -8 22 -13 24 -32 17 -13 -5 -66 -14 -118 -21 -52 -7 -156 -23 -230 -36 -74 -13 -175 -28 -224 -34 -49 -6 -123 -18 -165 -25 -115 -23 -119 -22 -87 19 14 19 26 40 26 46 0 6 14 32 32 58 17 25 43 66 56 91 14 26 36 64 48 86 13 22 37 65 54 95 17 30 49 84 71 120 22 36 46 79 54 95 9 17 33 59 55 95 21 36 50 87 65 114 14 26 34 60 45 73 11 14 20 30 20 35 0 6 14 30 30 55 17 24 30 46 30 48 0 3 -519 6 -1154 7 -1154 3 -1155 3 -1137 -17z m2238 -32 c-7 -16 -24 -46 -38 -68 -14 -22 -32 -52 -40 -66 -12 -23 -55 -100 -99 -177 -8 -15 -26 -45 -39 -67 -24 -39 -30 -50 -82 -145 -14 -25 -32 -56 -42 -70 -17 -27 -57 -96 -83 -146 -14 -28 -24 -33 -68 -38 -28 -4 -118 -20 -201 -35 -240 -46 -424 -79 -505 -91 -41 -7 -100 -18 -130 -25 -30 -8 -104 -21 -164 -30 -61 -8 -112 -18 -115 -20 -8 -9 -41 28 -62 69 -10 23 -35 66 -54 96 -32 52 -54 90 -128 222 -18 31 -38 63 -44 70 -7 6 -13 16 -13 21 0 5 -15 34 -34 65 -84 140 -129 217 -158 270 -17 31 -42 75 -54 97 -13 22 -30 52 -39 68 l-16 27 1110 0 1110 0 -12 -27z m-1497 -1057 c36 -8 85 -18 110 -21 25 -4 88 -17 140 -30 52 -13 127 -29 165 -35 39 -7 113 -23 166 -36 52 -13 121 -26 152 -30 31 -4 57 -10 57 -14 0 -8 -41 -83 -100 -180 -18 -30 -46 -80 -63 -110 -16 -30 -36 -62 -43 -71 -8 -8 -14 -20 -14 -26 0 -6 -16 -35 -35 -64 -19 -30 -35 -58 -35 -64 0 -6 -5 -16 -12 -23 -7 -7 -26 -37 -43 -68 -35 -63 -43 -68 -59 -39 -6 11 -20 36 -32 55 -62 102 -154 262 -154 268 0 3 -11 22 -23 41 -13 20 -43 70 -67 111 -24 41 -69 118 -100 170 -31 52 -61 106 -68 120 -6 14 -19 36 -29 49 -17 23 -17 23 2 18 11 -3 49 -13 85 -21z"/>
<path d="M3542 1971 c1 -16 6 -27 10 -25 11 7 10 42 -2 49 -6 4 -10 -5 -8 -24z"/>
</g>
<g id="layer113" fill="#d9b74f" stroke="none">
<path d="M930 3432 c0 -4 9 -8 19 -8 11 0 17 4 15 8 -3 4 -12 8 -20 8 -8 0 -14 -4 -14 -8z"/>
<path d="M1085 3430 c-4 -6 1 -7 10 -3 10 3 21 0 26 -8 7 -11 9 -11 9 4 0 18 -34 24 -45 7z"/>
<path d="M1945 3430 c12 -5 14 -9 6 -9 -8 -1 -12 -3 -9 -6 3 -3 13 -2 22 1 14 5 15 9 4 15 -7 5 -20 8 -28 8 -10 0 -8 -3 5 -9z"/>
<path d="M2000 3436 c0 -2 7 -7 16 -10 8 -3 12 -2 9 4 -6 10 -25 14 -25 6z"/>
<path d="M2167 3432 c6 -4 14 -34 16 -67 l3 -60 2 68 c2 58 0 67 -15 67 -12 0 -14 -3 -6 -8z"/>
<path d="M2305 3430 c3 -6 13 -10 21 -10 8 0 19 -10 24 -22 6 -16 9 -18 9 -7 1 18 -13 32 -42 42 -11 4 -16 3 -12 -3z"/>
<path d="M2550 3436 c0 -2 9 -6 20 -9 11 -3 18 -1 14 4 -5 9 -34 13 -34 5z"/>
<path d="M2699 3423 c-13 -16 -12 -17 3 -5 9 8 22 11 28 7 5 -3 10 -1 10 4 0 17 -26 13 -41 -6z"/>
<path d="M2770 3430 c0 -5 7 -7 15 -4 8 4 15 8 15 10 0 2 -7 4 -15 4 -8 0 -15 -4 -15 -10z"/>
<path d="M2933 3433 c4 -3 10 -3 14 0 3 4 0 7 -7 7 -7 0 -10 -3 -7 -7z"/>
<path d="M2978 3433 c12 -2 30 -2 40 0 9 3 -1 5 -23 4 -22 0 -30 -2 -17 -4z"/>
<path d="M3163 3423 c4 -3 10 -3 14 0 3 4 0 7 -7 7 -7 0 -10 -3 -7 -7z"/>
<path d="M3367 3419 c7 -7 15 -10 18 -7 3 3 -2 9 -12 12 -14 6 -15 5 -6 -5z"/>
<path d="M2283 3413 c4 -3 10 -3 14 0 3 4 0 7 -7 7 -7 0 -10 -3 -7 -7z"/>
<path d="M2550 3410 c0 -7 3 -10 7 -7 3 4 3 10 0 14 -4 3 -7 0 -7 -7z"/>
<path d="M3054 3408 c-4 -7 -3 -8 4 -4 12 7 16 16 8 16 -3 0 -8 -5 -12 -12z"/>
<path d="M1203 3403 c4 -3 10 -3 14 0 3 4 0 7 -7 7 -7 0 -10 -3 -7 -7z"/>
<path d="M1890 3399 c0 -22 32 -49 58 -49 12 0 22 4 22 8 0 4 -12 8 -27 7 -19 0 -31 7 -40 25 -8 16 -13 19 -13 9z"/>
<path d="M2440 3401 c0 -6 6 -11 14 -11 8 0 17 -6 20 -12 3 -7 5 -4 3 7 -2 20 -37 35 -37 16z"/>
<path d="M3008 3403 c6 -2 18 -2 25 0 6 3 1 5 -13 5 -14 0 -19 -2 -12 -5z"/>
<path d="M1710 3390 c0 -7 3 -10 7 -7 3 4 3 10 0 14 -4 3 -7 0 -7 -7z"/>
<path d="M1100 3380 c0 -7 3 -10 7 -7 3 4 3 10 0 14 -4 3 -7 0 -7 -7z"/>
<path d="M1140 3380 c0 -5 5 -10 11 -10 5 0 7 5 4 10 -3 6 -8 10 -11 10 -2 0 -4 -4 -4 -10z"/>
<path d="M1175 3380 c-3 -5 -1 -10 4 -10 6 0 11 5 11 10 0 6 -2 10 -4 10 -3 0 -8 -4 -11 -10z"/>
<path d="M1298 3367 c-3 -19 -2 -25 4 -19 6 6 8 18 6 28 -3 14 -5 12 -10 -9z"/>
<path d="M2560 3380 c0 -7 3 -10 7 -7 3 4 3 10 0 14 -4 3 -7 0 -7 -7z"/>
<path d="M950 3370 c0 -7 3 -10 7 -7 3 4 3 10 0 14 -4 3 -7 0 -7 -7z"/>
<path d="M1461 3364 c0 -11 3 -14 6 -6 3 7 2 16 -1 19 -3 4 -6 -2 -5 -13z"/>
<path d="M2242 3358 c-7 -7 -11 -21 -11 -32 1 -21 1 -21 6 -1 3 11 10 26 15 33 13 15 6 16 -10 0z"/>
<path d="M3140 3360 c-21 -7 -21 -8 -5 -9 11 0 27 4 35 9 18 11 5 11 -30 0z"/>
<path d="M1085 3349 c-4 -6 -5 -12 -2 -15 2 -3 7 2 10 11 7 17 1 20 -8 4z"/>
<path d="M2290 3350 c-18 -12 -2 -12 25 0 13 6 15 9 5 9 -8 0 -22 -4 -30 -9z"/>
<path d="M1001 3334 c0 -11 3 -14 6 -6 3 7 2 16 -1 19 -3 4 -6 -2 -5 -13z"/>
<path d="M1218 3343 c7 -3 16 -2 19 1 4 3 -2 6 -13 5 -11 0 -14 -3 -6 -6z"/>
<path d="M2150 3340 c0 -7 3 -10 7 -7 3 4 3 10 0 14 -4 3 -7 0 -7 -7z"/>
<path d="M2380 3335 c0 -8 8 -15 18 -15 13 0 14 2 3 9 -11 7 -11 9 0 14 10 4 9 6 -3 6 -10 1 -18 -6 -18 -14z"/>
<path d="M2513 3335 c0 -8 4 -15 9 -15 4 0 8 7 8 15 0 8 -4 15 -8 15 -5 0 -9 -7 -9 -15z"/>
<path d="M1342 3320 c0 -14 2 -19 5 -12 2 6 2 18 0 25 -3 6 -5 1 -5 -13z"/>
<path d="M1500 3330 c0 -7 3 -10 7 -7 3 4 3 10 0 14 -4 3 -7 0 -7 -7z"/>
<path d="M1164 3318 c-4 -7 -3 -8 4 -4 7 4 12 9 12 12 0 8 -9 4 -16 -8z"/>
<path d="M1910 3310 c6 -11 13 -20 16 -20 3 0 2 5 -2 11 -3 6 0 15 7 20 10 6 8 9 -9 9 -20 0 -21 -3 -12 -20z"/>
<path d="M2325 3321 c19 -8 19 -8 0 -19 -11 -6 -15 -12 -9 -12 12 0 34 20 34 32 0 4 -10 8 -22 7 -21 0 -22 -1 -3 -8z"/>
<path d="M3100 3323 c0 -6 8 -17 18 -24 16 -13 16 -13 2 6 -8 11 -16 22 -17 24 -2 2 -3 0 -3 -6z"/>
<path d="M1866 3307 c3 -10 9 -15 12 -12 3 3 0 11 -7 18 -10 9 -11 8 -5 -6z"/>
<path d="M2117 3314 c-8 -8 1 -24 12 -24 4 0 8 7 8 15 0 16 -9 20 -20 9z"/>
<path d="M2620 3310 c0 -7 3 -10 7 -7 3 4 3 10 0 14 -4 3 -7 0 -7 -7z"/>
<path d="M1030 3300 c0 -7 3 -10 7 -7 3 4 3 10 0 14 -4 3 -7 0 -7 -7z"/>
<path d="M1790 3300 c0 -7 3 -10 7 -7 3 4 3 10 0 14 -4 3 -7 0 -7 -7z"/>
<path d="M1994 3298 c-4 -7 -3 -8 4 -4 7 4 12 9 12 12 0 8 -9 4 -16 -8z"/>
<path d="M2650 3300 c0 -7 3 -10 7 -7 3 4 3 10 0 14 -4 3 -7 0 -7 -7z"/>
<path d="M3200 3300 c-9 -6 -10 -10 -3 -10 6 0 15 5 18 10 8 12 4 12 -15 0z"/>
<path d="M1151 3284 c0 -11 3 -14 6 -6 3 7 2 16 -1 19 -3 4 -6 -2 -5 -13z"/>
<path d="M2083 3293 c4 -3 10 -3 14 0 3 4 0 7 -7 7 -7 0 -10 -3 -7 -7z"/>
<path d="M2253 3293 c9 -2 25 -2 35 0 9 3 1 5 -18 5 -19 0 -27 -2 -17 -5z"/>
<path d="M2471 3284 c0 -11 3 -14 6 -6 3 7 2 16 -1 19 -3 4 -6 -2 -5 -13z"/>
<path d="M3323 3293 c4 -3 10 -3 14 0 3 4 0 7 -7 7 -7 0 -10 -3 -7 -7z"/>
<path d="M985 3280 c3 -5 8 -10 11 -10 3 0 2 5 -1 10 -3 6 -8 10 -11 10 -3 0 -2 -4 1 -10z"/>
<path d="M1256 3281 c-3 -4 6 -6 19 -3 14 2 25 6 25 8 0 8 -39 4 -44 -5z"/>
<path d="M1197 3269 c7 -7 15 -10 18 -7 3 3 -2 9 -12 12 -14 6 -15 5 -6 -5z"/>
<path d="M1341 3258 c-1 -22 4 -28 19 -28 11 0 20 4 20 10 0 5 -6 7 -14 4 -9 -4 -16 3 -19 18 -4 21 -4 20 -6 -4z"/>
<path d="M1620 3250 c0 -18 7 -20 80 -20 73 0 80 2 80 20 0 15 -6 20 -27 19 -27 0 -27 -1 -5 -9 37 -15 25 -20 -48 -20 -67 0 -95 14 -47 23 19 4 18 4 -5 6 -22 1 -28 -4 -28 -19z"/>
<path d="M1165 3250 c3 -5 8 -10 11 -10 3 0 2 5 -1 10 -3 6 -8 10 -11 10 -3 0 -2 -4 1 -10z"/>
<path d="M2614 3248 c2 -7 13 -13 26 -13 13 0 24 6 26 13 1 7 0 8 -3 2 -2 -5 -13 -10 -23 -10 -10 0 -21 5 -23 10 -3 6 -4 5 -3 -2z"/>
<path d="M2955 3250 c-4 -6 -11 -8 -16 -5 -5 4 -9 1 -9 -4 0 -6 9 -11 20 -11 11 0 20 7 20 15 0 17 -6 19 -15 5z"/>
<path d="M1007 3238 c2 -5 13 -8 23 -8 10 0 21 3 23 8 3 4 -8 7 -23 7 -15 0 -26 -3 -23 -7z"/>
<path d="M2770 3238 c0 -4 7 -8 15 -8 8 0 15 4 15 8 0 5 -7 9 -15 9 -8 0 -15 -4 -15 -9z"/>
<path d="M3260 3238 c0 -4 7 -8 15 -8 8 0 15 4 15 8 0 5 -7 9 -15 9 -8 0 -15 -4 -15 -9z"/>
<path d="M1203 3233 c9 -2 25 -2 35 0 9 3 1 5 -18 5 -19 0 -27 -2 -17 -5z"/>
<path d="M1478 3233 c7 -3 16 -2 19 1 4 3 -2 6 -13 5 -11 0 -14 -3 -6 -6z"/>
<path d="M989 2985 c10 -11 22 -31 26 -44 4 -14 20 -42 36 -64 16 -22 29 -44 29 -49 0 -5 11 -24 25 -42 14 -18 25 -36 25 -40 0 -5 98 -177 141 -246 5 -8 21 -37 35 -65 15 -27 34 -60 44 -75 39 -57 152 -256 156 -274 2 -10 12 -29 22 -40 11 -12 24 -31 30 -42 11 -21 11 -21 -51 -8 -34 7 -87 22 -117 32 -30 11 -58 20 -62 21 -5 0 -9 1 -10 2 -2 0 -20 2 -40 4 -20 2 -61 11 -90 20 -156 48 -477 125 -482 116 -12 -26 6 -36 94 -58 52 -13 129 -33 170 -45 41 -12 109 -29 150 -38 41 -10 147 -37 235 -60 88 -23 181 -47 206 -52 40 -9 49 -16 68 -52 11 -22 35 -63 51 -91 28 -48 62 -108 116 -205 14 -25 33 -56 43 -70 10 -15 31 -48 45 -75 29 -55 55 -99 109 -190 20 -33 48 -82 62 -110 15 -27 32 -57 40 -65 7 -8 16 -25 19 -37 4 -13 11 -23 16 -23 9 0 87 124 102 163 4 10 20 37 36 60 15 23 39 63 52 89 14 27 28 48 31 48 4 0 10 12 14 28 3 15 13 34 20 42 7 8 25 38 40 65 14 28 42 77 62 110 19 33 48 83 64 112 46 85 54 98 60 103 3 3 8 12 11 21 4 9 21 19 40 22 18 3 85 15 148 26 63 11 171 28 240 36 69 9 139 20 155 25 28 9 281 42 333 44 24 1 27 12 12 50 -8 22 -13 24 -32 17 -13 -5 -66 -14 -118 -21 -52 -7 -156 -23 -230 -36 -74 -13 -175 -28 -224 -34 -49 -6 -123 -18 -165 -25 -115 -23 -119 -22 -87 19 14 19 26 40 26 46 0 6 14 32 32 58 17 25 43 66 56 91 14 26 36 64 48 86 13 22 37 65 54 95 17 30 49 84 71 120 22 36 46 79 54 95 9 17 33 59 55 95 21 36 50 87 65 114 14 26 34 60 45 73 11 14 20 30 20 35 0 6 14 30 30 55 17 24 30 46 30 48 0 3 -519 6 -1154 7 -1154 3 -1155 3 -1137 -17z m2238 -32 c-7 -16 -24 -46 -38 -68 -14 -22 -32 -52 -40 -66 -12 -23 -55 -100 -99 -177 -8 -15 -26 -45 -39 -67 -24 -39 -30 -50 -82 -145 -14 -25 -32 -56 -42 -70 -17 -27 -57 -96 -83 -146 -14 -28 -24 -33 -68 -38 -28 -4 -118 -20 -201 -35 -240 -46 -424 -79 -505 -91 -41 -7 -100 -18 -130 -25 -30 -8 -104 -21 -164 -30 -61 -8 -112 -18 -115 -20 -8 -9 -41 28 -62 69 -10 23 -35 66 -54 96 -32 52 -54 90 -128 222 -18 31 -38 63 -44 70 -7 6 -13 16 -13 21 0 5 -15 34 -34 65 -84 140 -129 217 -158 270 -17 31 -42 75 -54 97 -13 22 -30 52 -39 68 l-16 27 1110 0 1110 0 -12 -27z m-1497 -1057 c36 -8 85 -18 110 -21 25 -4 88 -17 140 -30 52 -13 127 -29 165 -35 39 -7 113 -23 166 -36 52 -13 121 -26 152 -30 31 -4 57 -10 57 -14 0 -8 -41 -83 -100 -180 -18 -30 -46 -80 -63 -110 -16 -30 -36 -62 -43 -71 -8 -8 -14 -20 -14 -26 0 -6 -16 -35 -35 -64 -19 -30 -35 -58 -35 -64 0 -6 -5 -16 -12 -23 -7 -7 -26 -37 -43 -68 -35 -63 -43 -68 -59 -39 -6 11 -20 36 -32 55 -62 102 -154 262 -154 268 0 3 -11 22 -23 41 -13 20 -43 70 -67 111 -24 41 -69 118 -100 170 -31 52 -61 106 -68 120 -6 14 -19 36 -29 49 -17 23 -17 23 2 18 11 -3 49 -13 85 -21z"/>
<path d="M3552 1970 c0 -14 2 -19 5 -12 2 6 2 18 0 25 -3 6 -5 1 -5 -13z"/>
</g>
<g id="layer114" fill="#a2a2a2" stroke="none">
<path d="M989 2985 c10 -11 22 -31 26 -44 4 -14 20 -42 36 -64 16 -22 29 -44 29 -49 0 -5 11 -24 25 -42 14 -18 25 -36 25 -40 0 -5 98 -177 141 -246 5 -8 21 -37 35 -65 15 -27 34 -60 44 -75 39 -57 152 -256 156 -274 2 -10 12 -29 22 -40 11 -12 24 -31 30 -42 11 -21 11 -21 -51 -8 -34 7 -87 22 -117 32 -30 11 -58 20 -62 21 -5 0 -9 1 -10 2 -2 0 -20 2 -40 4 -20 2 -61 11 -90 20 -156 48 -477 125 -482 116 -12 -26 6 -36 94 -58 52 -13 129 -33 170 -45 41 -12 109 -29 150 -38 41 -10 147 -37 235 -60 88 -23 181 -47 206 -52 40 -9 49 -16 68 -52 11 -22 35 -63 51 -91 28 -48 62 -108 116 -205 14 -25 33 -56 43 -70 10 -15 31 -48 45 -75 29 -55 55 -99 109 -190 20 -33 48 -82 62 -110 15 -27 32 -57 40 -65 7 -8 16 -25 19 -37 4 -13 11 -23 16 -23 9 0 87 124 102 163 4 10 20 37 36 60 15 23 39 63 52 89 14 27 28 48 31 48 4 0 10 12 14 28 3 15 13 34 20 42 7 8 25 38 40 65 14 28 42 77 62 110 19 33 48 83 63 110 76 138 77 140 111 147 83 18 278 49 391 64 68 8 137 19 153 24 28 9 282 42 333 44 24 1 27 12 12 51 -8 21 -13 24 -27 16 -10 -5 -63 -14 -118 -21 -55 -7 -161 -23 -235 -36 -74 -13 -175 -28 -224 -34 -49 -6 -123 -18 -165 -25 -115 -23 -119 -22 -87 19 14 19 26 40 26 46 0 6 14 32 32 58 17 25 43 66 56 91 14 26 36 64 48 86 13 22 37 65 54 95 17 30 49 84 71 120 22 36 46 79 54 95 9 17 33 59 55 95 21 36 50 87 65 114 14 26 34 60 45 73 11 14 20 30 20 35 0 6 14 30 30 55 17 24 30 46 30 48 0 3 -519 6 -1154 7 -1154 3 -1155 3 -1137 -17z m2238 -32 c-7 -16 -24 -46 -38 -68 -14 -22 -32 -52 -40 -66 -12 -23 -55 -100 -99 -177 -8 -15 -26 -45 -39 -67 -24 -39 -30 -50 -82 -145 -14 -25 -32 -56 -42 -70 -17 -27 -57 -96 -83 -146 -14 -28 -24 -33 -68 -38 -28 -4 -118 -20 -201 -35 -240 -46 -424 -79 -505 -91 -41 -7 -100 -18 -130 -25 -30 -8 -104 -21 -164 -30 -61 -8 -112 -18 -115 -20 -8 -9 -41 28 -62 69 -10 23 -35 66 -54 96 -32 52 -54 90 -128 222 -18 31 -38 63 -44 70 -7 6 -13 16 -13 21 0 5 -15 34 -34 65 -84 140 -129 217 -158 270 -17 31 -42 75 -54 97 -13 22 -30 52 -39 68 l-16 27 1110 0 1110 0 -12 -27z m-1497 -1057 c36 -8 85 -18 110 -21 25 -4 88 -17 140 -30 52 -13 127 -29 165 -35 39 -7 113 -23 166 -36 52 -13 121 -26 152 -30 31 -4 57 -10 57 -14 0 -8 -41 -83 -100 -180 -18 -30 -46 -80 -63 -110 -16 -30 -36 -62 -43 -71 -8 -8 -14 -20 -14 -26 0 -6 -16 -35 -35 -64 -19 -30 -35 -58 -35 -64 0 -6 -5 -16 -12 -23 -7 -7 -26 -37 -43 -68 -35 -63 -43 -68 -59 -39 -6 11 -20 36 -32 55 -62 102 -154 262 -154 268 0 3 -11 22 -23 41 -13 20 -43 70 -67 111 -24 41 -69 118 -100 170 -31 52 -61 106 -68 120 -6 14 -19 36 -29 49 -17 23 -17 23 2 18 11 -3 49 -13 85 -21z"/>
</g>
<g id="layer115" fill="#fdfa07" stroke="none">
<path d="M990 2985 c10 -11 22 -32 25 -48 4 -15 13 -31 20 -35 7 -4 25 -29 40 -57 15 -27 44 -79 65 -115 22 -36 45 -76 52 -90 7 -14 24 -43 38 -65 14 -22 31 -51 38 -65 7 -14 30 -54 52 -90 21 -36 50 -87 64 -114 15 -26 35 -60 46 -73 11 -14 20 -30 20 -35 0 -5 14 -29 31 -54 16 -24 27 -49 24 -54 -3 -6 -1 -10 5 -10 6 0 9 -4 6 -9 -3 -5 1 -15 10 -22 8 -7 22 -25 29 -39 l14 -27 -62 13 c-34 7 -81 20 -104 28 -24 8 -43 13 -43 9 0 -3 -6 -1 -12 5 -7 6 -16 11 -20 11 -5 1 -11 2 -15 2 -5 1 -16 0 -26 -1 -18 -1 -117 24 -152 40 -49 21 -424 110 -429 101 -7 -15 0 -34 14 -37 30 -6 177 -45 260 -69 47 -13 103 -26 125 -29 22 -3 70 -14 107 -25 36 -12 86 -25 110 -30 24 -5 54 -12 68 -16 14 -3 32 -8 40 -10 8 -2 15 -4 15 -5 0 -2 18 -7 96 -27 62 -15 68 -20 88 -57 28 -55 62 -112 92 -161 14 -22 28 -44 30 -50 2 -5 27 -48 54 -94 28 -46 63 -106 79 -135 15 -28 34 -58 42 -67 8 -8 14 -22 14 -29 0 -7 6 -21 14 -29 8 -9 26 -38 41 -66 14 -27 48 -86 75 -130 27 -44 49 -86 50 -92 1 -28 21 -10 50 45 17 31 49 86 70 122 22 36 45 76 52 90 7 14 24 43 38 65 14 22 31 51 38 65 6 14 30 54 52 90 22 36 45 76 52 90 7 14 23 43 37 65 14 22 35 58 46 80 67 122 72 130 106 137 83 18 278 49 391 64 68 8 137 19 153 24 28 9 282 42 333 44 24 1 27 12 12 51 -8 21 -13 24 -27 16 -10 -5 -63 -14 -118 -21 -55 -7 -161 -23 -235 -36 -74 -13 -175 -28 -224 -34 -49 -6 -123 -18 -165 -25 -115 -23 -119 -22 -87 19 14 19 26 40 26 46 0 6 15 32 32 58 18 26 41 63 50 82 10 19 31 58 47 85 26 44 47 81 111 193 8 15 26 45 39 67 13 22 36 60 49 85 14 25 36 63 48 85 13 22 35 63 50 90 15 28 36 63 47 79 12 17 28 44 37 60 9 17 24 43 34 58 l18 28 -1155 2 c-1155 3 -1156 3 -1137 -17z m2238 -32 c-7 -16 -25 -47 -40 -71 -15 -24 -28 -45 -28 -48 0 -3 -23 -44 -51 -92 -49 -83 -66 -113 -123 -217 -14 -24 -33 -56 -42 -70 -18 -28 -25 -40 -89 -155 -22 -40 -46 -83 -52 -95 -10 -17 -26 -24 -65 -29 -29 -4 -120 -20 -203 -35 -240 -46 -424 -79 -505 -91 -41 -7 -100 -18 -130 -25 -30 -8 -104 -21 -164 -29 -59 -9 -112 -18 -116 -21 -9 -6 -42 32 -60 70 -8 17 -21 37 -29 45 -7 8 -19 26 -25 40 -7 14 -23 43 -36 65 -30 49 -53 89 -77 135 -10 19 -30 53 -44 75 -14 22 -42 69 -63 105 -21 36 -41 72 -47 80 -10 16 -62 109 -95 169 -11 21 -29 51 -40 67 -11 16 -35 57 -52 92 l-32 62 1110 0 1110 0 -12 -27z m-1498 -1057 c36 -8 85 -18 110 -21 25 -4 88 -17 140 -30 52 -13 127 -29 165 -35 39 -7 113 -23 166 -36 52 -13 121 -26 152 -30 32 -4 57 -12 56 -18 0 -6 -13 -33 -29 -61 -17 -27 -43 -75 -60 -105 -17 -30 -49 -84 -70 -120 -22 -36 -45 -76 -52 -90 -7 -14 -24 -43 -38 -65 -14 -22 -31 -51 -38 -65 -26 -54 -88 -154 -98 -157 -5 -2 -18 11 -28 29 -28 53 -49 90 -75 133 -24 40 -34 57 -83 147 -14 26 -35 60 -47 76 -11 17 -21 34 -21 39 0 5 -16 32 -35 59 -19 27 -35 54 -35 59 0 6 -12 28 -27 50 -31 45 -74 121 -103 180 -11 22 -27 51 -37 64 -17 23 -17 23 2 18 11 -3 49 -13 85 -21z"/>
<path d="M3363 1953 c4 -3 10 -3 14 0 3 4 0 7 -7 7 -7 0 -10 -3 -7 -7z"/>
</g>
<g id="layer116" fill="#dadab5" stroke="none">
<path d="M990 2985 c10 -11 22 -32 25 -48 4 -15 13 -31 20 -35 7 -4 25 -29 40 -57 15 -27 44 -79 65 -115 22 -36 45 -76 52 -90 7 -14 24 -43 38 -65 14 -22 31 -51 38 -65 7 -14 30 -54 52 -90 21 -36 50 -87 64 -114 15 -26 35 -60 46 -73 11 -14 20 -30 20 -35 0 -5 14 -29 31 -54 16 -24 27 -49 24 -54 -3 -6 -1 -10 5 -10 6 0 9 -4 6 -9 -3 -5 1 -15 10 -22 8 -7 22 -25 29 -39 l14 -27 -62 13 c-34 7 -81 20 -104 28 -24 8 -43 13 -43 9 0 -3 -6 -1 -12 5 -7 6 -16 11 -20 11 -5 1 -11 2 -15 2 -5 1 -16 0 -26 -1 -18 -1 -117 24 -152 40 -49 21 -424 110 -429 101 -7 -15 0 -34 14 -37 30 -6 177 -45 260 -69 47 -13 103 -26 125 -29 22 -3 70 -14 107 -25 36 -12 86 -25 110 -30 24 -5 54 -12 68 -16 14 -3 32 -8 40 -10 8 -2 15 -4 15 -5 0 -2 18 -7 96 -27 62 -15 68 -20 88 -57 28 -55 62 -112 92 -161 14 -22 28 -44 30 -50 2 -5 27 -48 54 -94 28 -46 63 -106 79 -135 15 -28 34 -58 42 -67 8 -8 14 -22 14 -29 0 -7 6 -21 14 -29 8 -9 26 -38 41 -66 14 -27 48 -86 75 -130 27 -44 49 -86 50 -92 1 -28 21 -10 50 45 17 31 49 86 70 122 22 36 45 76 52 90 7 14 24 43 38 65 14 22 31 51 38 65 6 14 30 54 52 90 22 36 45 76 52 90 7 14 23 43 37 65 14 22 35 58 46 80 12 22 31 56 42 75 11 19 37 64 58 100 20 36 43 72 51 81 8 8 14 21 14 28 0 7 15 33 32 59 18 26 41 63 50 82 10 19 31 58 47 85 26 44 47 81 111 193 8 15 26 45 39 67 13 22 36 60 49 85 14 25 36 63 48 85 13 22 35 63 50 90 15 28 36 63 47 79 12 17 28 44 37 60 9 17 24 43 34 58 l18 28 -1155 2 c-1155 3 -1156 3 -1137 -17z m2238 -32 c-7 -16 -25 -47 -40 -71 -15 -24 -28 -45 -28 -48 0 -3 -23 -44 -51 -92 -49 -83 -66 -113 -123 -217 -14 -24 -33 -56 -42 -70 -18 -28 -25 -40 -89 -155 -22 -40 -46 -83 -52 -95 -10 -17 -26 -24 -65 -29 -29 -4 -120 -20 -203 -35 -240 -46 -424 -79 -505 -91 -41 -7 -100 -18 -130 -25 -30 -8 -104 -21 -164 -29 -59 -9 -112 -18 -116 -21 -9 -6 -42 32 -60 70 -8 17 -21 37 -29 45 -7 8 -19 26 -25 40 -7 14 -23 43 -36 65 -30 49 -53 89 -77 135 -10 19 -30 53 -44 75 -14 22 -42 69 -63 105 -21 36 -41 72 -47 80 -10 16 -62 109 -95 169 -11 21 -29 51 -40 67 -11 16 -35 57 -52 92 l-32 62 1110 0 1110 0 -12 -27z m-1498 -1057 c36 -8 85 -18 110 -21 25 -4 88 -17 140 -30 52 -13 127 -29 165 -35 39 -7 113 -23 166 -36 52 -13 121 -26 152 -30 32 -4 57 -12 56 -18 0 -6 -13 -33 -29 -61 -17 -27 -43 -75 -60 -105 -17 -30 -49 -84 -70 -120 -22 -36 -45 -76 -52 -90 -7 -14 -24 -43 -38 -65 -14 -22 -31 -51 -38 -65 -26 -54 -88 -154 -98 -157 -5 -2 -18 11 -28 29 -28 53 -49 90 -75 133 -24 40 -34 57 -83 147 -14 26 -35 60 -47 76 -11 17 -21 34 -21 39 0 5 -16 32 -35 59 -19 27 -35 54 -35 59 0 6 -12 28 -27 50 -31 45 -74 121 -103 180 -11 22 -27 51 -37 64 -17 23 -17 23 2 18 11 -3 49 -13 85 -21z"/>
<path d="M3551 2104 c0 -11 3 -14 6 -6 3 7 2 16 -1 19 -3 4 -6 -2 -5 -13z"/>
<path d="M3550 1980 c0 -7 3 -10 7 -7 3 4 3 10 0 14 -4 3 -7 0 -7 -7z"/>
</g>
<g id="layer117" fill="#dadad7" stroke="none">
<path d="M990 2985 c10 -11 22 -32 25 -48 4 -15 13 -31 20 -35 7 -4 25 -29 40 -57 15 -27 44 -79 65 -115 22 -36 45 -76 52 -90 7 -14 24 -43 38 -65 14 -22 31 -51 38 -65 7 -14 30 -54 52 -90 21 -36 50 -87 64 -114 15 -26 35 -60 46 -73 11 -14 20 -30 20 -35 0 -5 14 -29 31 -54 16 -24 27 -49 24 -54 -3 -6 -1 -10 5 -10 6 0 9 -4 6 -9 -3 -5 1 -15 10 -22 8 -7 22 -25 29 -39 l14 -27 -62 13 c-34 7 -81 20 -104 28 -24 8 -43 13 -43 9 0 -3 -6 -1 -12 5 -7 6 -16 11 -20 11 -5 1 -11 2 -15 2 -5 1 -16 0 -26 -1 -18 -1 -117 24 -152 40 -49 21 -424 110 -429 101 -7 -15 0 -34 14 -37 30 -6 177 -45 260 -69 47 -13 103 -26 125 -29 22 -3 70 -14 107 -25 36 -12 86 -25 110 -30 24 -5 54 -12 68 -16 14 -3 32 -8 40 -10 8 -2 15 -4 15 -5 0 -2 18 -7 96 -27 62 -15 68 -20 88 -57 28 -55 62 -112 92 -161 14 -22 28 -44 30 -50 2 -5 27 -48 54 -94 28 -46 63 -106 79 -135 15 -28 34 -58 42 -67 8 -8 14 -22 14 -29 0 -7 6 -21 14 -29 8 -9 26 -38 41 -66 14 -27 48 -86 75 -130 27 -44 49 -86 50 -92 1 -28 21 -10 50 45 17 31 49 86 70 122 22 36 45 76 52 90 7 14 24 43 38 65 14 22 31 51 38 65 6 14 30 54 52 90 22 36 45 76 52 90 7 14 23 43 37 65 47 75 81 145 81 163 0 11 9 27 20 37 11 10 20 24 20 31 0 17 61 114 71 114 5 0 9 5 9 10 0 6 17 34 38 63 20 29 45 68 55 87 9 19 30 58 46 85 26 44 48 82 111 193 8 15 26 45 39 67 13 22 36 60 49 85 14 25 36 63 48 85 13 22 35 63 50 90 15 28 36 63 47 79 12 17 28 44 37 60 9 17 24 43 34 58 l18 28 -1155 2 c-1155 3 -1156 3 -1137 -17z m2238 -32 c-7 -16 -25 -47 -40 -71 -15 -24 -28 -45 -28 -48 0 -3 -23 -44 -51 -92 -49 -83 -66 -113 -123 -217 -14 -24 -33 -56 -42 -70 -18 -28 -25 -40 -89 -155 -22 -40 -46 -83 -52 -95 -10 -17 -26 -24 -65 -29 -29 -4 -120 -20 -203 -35 -240 -46 -424 -79 -505 -91 -41 -7 -100 -18 -130 -25 -30 -8 -104 -21 -164 -29 -59 -9 -112 -18 -116 -21 -9 -6 -42 32 -60 70 -8 17 -21 37 -29 45 -7 8 -19 26 -25 40 -7 14 -23 43 -36 65 -30 49 -53 89 -77 135 -10 19 -30 53 -44 75 -14 22 -42 69 -63 105 -21 36 -41 72 -47 80 -10 16 -62 109 -95 169 -11 21 -29 51 -40 67 -11 16 -35 57 -52 92 l-32 62 1110 0 1110 0 -12 -27z m-1498 -1057 c36 -8 85 -18 110 -21 25 -4 88 -17 140 -30 52 -13 127 -29 165 -35 39 -7 113 -23 166 -36 52 -13 121 -26 152 -30 32 -4 57 -12 56 -18 0 -6 -13 -33 -29 -61 -17 -27 -43 -75 -60 -105 -17 -30 -49 -84 -70 -120 -22 -36 -45 -76 -52 -90 -7 -14 -24 -43 -38 -65 -14 -22 -31 -51 -38 -65 -26 -54 -88 -154 -98 -157 -5 -2 -18 11 -28 29 -28 53 -49 90 -75 133 -24 40 -34 57 -83 147 -14 26 -35 60 -47 76 -11 17 -21 34 -21 39 0 5 -16 32 -35 59 -19 27 -35 54 -35 59 0 6 -12 28 -27 50 -31 45 -74 121 -103 180 -11 22 -27 51 -37 64 -17 23 -17 23 2 18 11 -3 49 -13 85 -21z"/>
<path d="M3541 2194 c0 -11 3 -14 6 -6 3 7 2 16 -1 19 -3 4 -6 -2 -5 -13z"/>
</g>
<g id="layer118" fill="#eae9ea" stroke="none">
<path d="M990 2985 c10 -11 22 -32 25 -48 4 -15 13 -31 20 -35 12 -7 35 -44 95 -152 38 -68 69 -123 101 -175 29 -49 45 -77 83 -147 16 -29 32 -55 37 -58 4 -3 15 -21 23 -40 8 -19 29 -55 46 -80 16 -25 30 -48 30 -52 0 -4 14 -27 30 -51 17 -25 30 -49 30 -53 0 -5 14 -29 30 -53 35 -52 37 -65 10 -58 -11 3 -18 1 -15 -4 3 -4 18 -7 34 -6 l28 2 -18 24 c-11 13 -19 28 -19 33 0 6 -13 30 -30 55 -16 24 -30 48 -30 54 0 5 -13 28 -30 51 -16 22 -30 46 -30 52 0 6 -14 29 -30 50 -17 22 -30 44 -30 49 0 5 -16 32 -35 61 -19 29 -35 56 -35 61 0 4 -13 27 -30 52 -16 24 -30 48 -30 54 0 5 -13 28 -30 51 -16 22 -30 45 -30 50 0 6 -8 22 -19 36 -19 28 -47 75 -87 151 -13 24 -28 49 -32 55 -4 6 -13 23 -20 39 l-12 27 1110 0 1110 0 -12 -27 c-7 -16 -25 -47 -40 -71 -15 -24 -28 -49 -28 -57 0 -8 -4 -16 -9 -20 -6 -3 -25 -34 -44 -68 -18 -34 -51 -91 -72 -127 -21 -36 -47 -81 -57 -100 -11 -19 -37 -64 -58 -100 -21 -36 -53 -90 -70 -120 -17 -30 -39 -68 -50 -85 -20 -31 -26 -43 -35 -71 -4 -13 -13 -15 -39 -10 -31 6 -35 4 -38 -16 -2 -13 -9 -22 -17 -20 -8 2 -5 -9 9 -28 l22 -31 21 28 c15 18 17 28 9 31 -7 2 -12 9 -12 15 0 8 4 7 12 -1 10 -10 17 -6 35 14 13 15 23 31 23 36 0 5 12 27 27 51 15 23 34 56 43 72 9 17 34 61 56 99 21 37 49 86 62 109 12 22 29 48 37 57 8 9 15 22 15 29 0 6 12 29 26 51 14 22 34 53 43 69 9 17 32 58 52 93 20 35 48 85 63 113 15 27 37 62 48 77 l19 28 -1155 2 c-1154 3 -1155 3 -1136 -17z"/>
<path d="M3540 2250 c0 -7 3 -10 7 -7 3 4 3 10 0 14 -4 3 -7 0 -7 -7z"/>
<path d="M711 2188 c-1 -10 -1 -21 -1 -25 0 -4 10 -8 23 -8 13 -1 30 -5 37 -10 8 -5 11 -4 6 3 -3 5 0 12 6 15 8 2 9 8 4 13 -5 5 -11 4 -13 -3 -3 -7 -9 -13 -15 -13 -6 0 -8 7 -4 15 3 9 0 15 -10 15 -10 0 -14 -6 -10 -15 3 -8 3 -15 0 -15 -2 0 -9 10 -14 23 -7 17 -9 18 -9 5z"/>
<path d="M3540 2190 c0 -7 3 -10 7 -7 3 4 3 10 0 14 -4 3 -7 0 -7 -7z"/>
<path d="M809 2148 c11 -29 36 -38 27 -10 -6 19 -4 20 24 12 16 -5 30 -5 30 0 0 9 -35 20 -67 20 -19 0 -21 -3 -14 -22z"/>
<path d="M2740 2160 c0 -5 5 -10 10 -10 6 0 10 5 10 10 0 6 -4 10 -10 10 -5 0 -10 -4 -10 -10z"/>
<path d="M895 2140 c-3 -5 -12 -7 -19 -4 -8 3 -17 1 -20 -5 -4 -6 5 -13 21 -17 15 -3 34 -7 41 -10 7 -2 15 3 18 11 4 8 10 12 15 9 5 -3 6 -10 3 -16 -5 -7 -2 -8 6 -3 10 6 8 12 -9 27 -25 20 -47 23 -56 8z"/>
<path d="M2537 2134 c-4 -4 -20 -8 -37 -9 -16 -1 -44 -2 -61 -3 -48 -3 -60 -45 -57 -202 2 -82 -1 -129 -7 -129 -22 3 -35 -1 -35 -10 0 -5 12 -8 26 -5 16 3 23 1 19 -6 -4 -6 -3 -9 2 -8 4 1 25 -4 46 -11 21 -7 49 -10 61 -7 24 6 45 -17 27 -29 -5 -2 -18 -24 -30 -47 -12 -24 -39 -72 -60 -108 -22 -36 -51 -87 -66 -114 -14 -26 -34 -60 -45 -73 -11 -14 -20 -30 -20 -35 0 -4 -12 -27 -27 -51 -27 -43 -64 -108 -91 -162 -27 -53 -49 -77 -59 -63 -8 14 -20 34 -73 128 -19 34 -42 74 -50 88 -8 15 -26 45 -40 67 -25 41 -30 49 -88 152 -18 32 -51 87 -73 123 -21 36 -45 76 -51 90 -7 14 -25 44 -40 67 -15 23 -28 45 -28 48 0 8 -62 105 -67 105 -4 0 36 -76 77 -145 31 -53 72 -125 122 -215 17 -30 34 -57 38 -60 4 -3 19 -27 34 -55 14 -27 39 -72 56 -100 25 -44 48 -84 110 -193 8 -15 26 -45 40 -67 13 -22 28 -49 32 -59 5 -10 10 -17 12 -15 4 4 49 82 104 179 14 25 33 56 44 69 10 13 18 28 18 33 0 6 14 30 30 55 17 24 30 48 30 53 0 5 14 29 30 53 17 25 30 49 30 53 0 4 11 24 24 43 36 55 134 225 142 247 7 17 6 18 -10 4 -16 -13 -18 -12 -14 10 2 15 14 30 31 38 16 8 30 20 33 28 2 8 7 22 11 32 3 9 7 21 7 25 1 4 6 11 12 15 6 4 14 19 18 34 6 24 3 28 -26 37 -18 5 -27 10 -20 10 17 1 15 28 -4 35 -9 3 -26 6 -39 6 -25 0 -38 21 -29 45 6 15 -7 21 -19 9z m-100 -31 c-4 -3 -10 -3 -14 0 -3 4 0 7 7 7 7 0 10 -3 7 -7z"/>
<path d="M987 2113 c-4 -3 -7 -11 -7 -17 0 -6 5 -5 12 2 6 6 9 14 7 17 -3 3 -9 2 -12 -2z"/>
<path d="M1068 2093 c12 -2 22 -9 22 -14 0 -5 8 -9 17 -9 15 0 14 2 -3 15 -10 8 -28 14 -39 13 -17 -1 -17 -1 3 -5z"/>
<path d="M1013 2083 c4 -3 10 -3 14 0 3 4 0 7 -7 7 -7 0 -10 -3 -7 -7z"/>
<path d="M1141 2071 c-9 -6 -10 -11 -2 -15 6 -4 11 -3 11 2 0 6 9 8 21 5 16 -5 18 -8 7 -15 -10 -7 -9 -8 5 -4 9 3 17 1 17 -4 0 -6 4 -10 8 -10 5 0 9 7 9 15 0 8 -2 13 -5 10 -3 -2 -14 2 -26 10 -24 17 -26 18 -45 6z"/>
<path d="M2143 2063 c4 -3 10 -3 14 0 3 4 0 7 -7 7 -7 0 -10 -3 -7 -7z"/>
<path d="M2080 2050 c0 -5 11 -10 25 -10 14 0 25 5 25 10 0 6 -11 10 -25 10 -14 0 -25 -4 -25 -10z"/>
<path d="M1258 2039 c-7 -4 -9 -11 -5 -16 5 -4 12 -1 16 6 7 11 9 11 13 0 3 -10 6 -9 10 2 7 17 -12 21 -34 8z"/>
<path d="M1320 2038 c0 -2 9 -11 20 -21 11 -9 20 -13 20 -7 0 5 -9 14 -20 20 -11 6 -20 9 -20 8z"/>
<path d="M1300 2021 c0 -10 19 -25 25 -20 1 2 -3 10 -11 17 -8 7 -14 8 -14 3z"/>
<path d="M1395 2010 c3 -5 8 -10 11 -10 3 0 2 5 -1 10 -3 6 -8 10 -11 10 -3 0 -2 -4 1 -10z"/>
<path d="M1435 2000 c3 -6 1 -10 -6 -10 -7 0 -10 -3 -6 -6 3 -3 13 -2 22 4 16 8 16 9 1 15 -10 4 -15 3 -11 -3z"/>
<path d="M1488 1983 c7 -3 16 -2 19 1 4 3 -2 6 -13 5 -11 0 -14 -3 -6 -6z"/>
<path d="M1707 1983 c-8 -12 30 -29 40 -19 4 3 -1 6 -9 6 -9 0 -18 5 -20 12 -3 9 -6 9 -11 1z"/>
<path d="M1743 1983 c4 -3 10 -3 14 0 3 4 0 7 -7 7 -7 0 -10 -3 -7 -7z"/>
<path d="M1500 1966 c0 -2 7 -7 16 -10 8 -3 12 -2 9 4 -6 10 -25 14 -25 6z"/>
<path d="M1555 1950 c3 -5 8 -10 11 -10 3 0 2 5 -1 10 -3 6 -8 10 -11 10 -3 0 -2 -4 1 -10z"/>
<path d="M1710 1912 c0 -4 9 -8 20 -9 11 -1 20 2 20 8 0 5 -9 9 -20 9 -11 0 -20 -4 -20 -8z"/>
<path d="M3550 1910 c0 -7 3 -10 7 -7 3 4 3 10 0 14 -4 3 -7 0 -7 -7z"/>
<path d="M1920 1866 c7 -7 13 -7 20 0 6 6 3 10 -10 10 -13 0 -16 -4 -10 -10z"/>
<path d="M2043 1833 c4 -3 10 -3 14 0 3 4 0 7 -7 7 -7 0 -10 -3 -7 -7z"/>
<path d="M2104 1828 c-4 -7 -3 -8 4 -4 7 4 12 9 12 12 0 8 -9 4 -16 -8z"/>
<path d="M2320 1790 c0 -7 3 -10 7 -7 3 4 3 10 0 14 -4 3 -7 0 -7 -7z"/>
</g>


</svg>